<svg width="49" height="48" viewBox="0 0 49 48" fill="none" xmlns="http://www.w3.org/2000/svg">
<rect x="0.699219" y="0.5" width="47" height="47" rx="15.5" stroke="#1F145A"/>
<g clip-path="url(#clip0_1696_8788)">
<path d="M30.6658 32.1917L31.2881 32.3361C31.5283 32.3918 32.0035 32.3762 32.6562 32.2837C33.2843 32.1946 34.0054 32.0459 34.6932 31.8851C35.3794 31.7248 36.0246 31.5544 36.4987 31.4239C36.6684 31.3771 36.816 31.3356 36.9354 31.3015C36.9386 31.2817 36.942 31.2619 36.9453 31.2424C36.9559 31.1814 36.967 31.1207 36.9785 31.0583C37.0015 30.9333 37.0258 30.8012 37.0489 30.6446C37.1069 30.2527 37.1452 29.7761 37.0745 29.2409C37.0611 29.2373 37.0469 29.2334 37.0318 29.2293L37.0239 29.2272C36.944 29.2056 36.8321 29.1753 36.7377 29.1385C36.6898 29.1198 36.6192 29.0894 36.5509 29.0421C36.4972 29.0048 36.3476 28.8913 36.3072 28.6778M30.6658 32.1917L36.7985 28.5848M30.6658 32.1917L30.6752 32.8305L30.7428 37.4337C30.5643 37.4976 30.3114 37.5828 29.9907 37.6773C29.2914 37.8834 28.2713 38.1335 27.0007 38.3041C24.5306 38.6359 21.1192 38.6672 17.2747 37.4977L17.1484 34.0764L17.1318 33.6277L16.6842 33.5961L16.6841 33.5961L16.684 33.5961L16.6831 33.596L16.6773 33.5956L16.6518 33.5935C16.6286 33.5916 16.5934 33.5885 16.5474 33.5839C16.4552 33.5749 16.3195 33.5602 16.1495 33.5378C15.8091 33.4931 15.3331 33.418 14.7933 33.297C13.7483 33.0627 12.51 32.6662 11.5485 32.0173C11.3222 31.3509 11.234 30.6435 11.2896 29.9405C11.2922 29.9397 11.2948 29.9389 11.2975 29.938L11.3061 29.9354C11.3782 29.9132 11.495 29.8773 11.5963 29.827C11.6506 29.8001 11.7279 29.756 11.7992 29.6866C11.8742 29.6137 11.9607 29.494 11.9812 29.326L11.9814 29.3245C12.2994 26.6567 12.8033 22.6653 13.3647 19.0867C13.6455 17.2969 13.9397 15.6162 14.2312 14.2585C14.5013 13.0006 14.7582 12.0755 14.9803 11.5871L14.9934 11.5803C15.0949 11.5279 15.2414 11.4525 15.4213 11.3611C15.7813 11.1782 16.2739 10.9316 16.8053 10.6762C17.6193 10.285 18.4824 9.89397 19.103 9.66737C19.1457 9.98972 19.2057 10.4293 19.2809 10.9501C19.4435 12.0761 19.6776 13.5845 19.9633 15.1097C20.2484 16.6313 20.5875 18.1848 20.9622 19.3946C21.1489 19.9974 21.3504 20.535 21.5676 20.9461C21.6761 21.1516 21.7968 21.3413 21.9328 21.4951C22.0654 21.6451 22.2423 21.7947 22.4699 21.8616L22.4705 21.8618C22.8868 21.9838 23.2635 21.7817 23.5254 21.571C23.8027 21.348 24.0757 21.019 24.3383 20.6347C24.8677 19.8601 25.4263 18.754 25.9501 17.4968C26.9103 15.1922 27.7868 12.2981 28.1578 9.8309C28.2031 9.85077 28.2505 9.87154 28.2998 9.89315C28.7538 10.0922 29.3659 10.3618 29.9987 10.644C30.6319 10.9263 31.2841 11.2204 31.819 11.469C32.2799 11.6831 32.6308 11.853 32.813 11.9515M30.6658 32.1917L32.7876 11.8997M36.3072 28.6778L36.7985 28.5848M36.3072 28.6778C36.3073 28.678 36.3073 28.6781 36.3073 28.6783L36.7985 28.5848M36.3072 28.6778C36.2048 28.14 36.0934 27.5519 35.9752 26.928C35.477 24.2985 34.858 21.0313 34.2834 18.1951C33.9278 16.4399 33.5904 14.8559 33.3101 13.6931C33.1697 13.1104 33.0456 12.6422 32.9426 12.3139C32.8906 12.1483 32.8476 12.0303 32.8145 11.9549C32.814 11.9538 32.8135 11.9526 32.813 11.9515M36.7985 28.5848C36.6963 28.0477 36.5849 27.4602 36.4668 26.8367C35.3522 20.9539 33.629 11.8585 33.157 11.572M32.813 11.9515C32.8473 11.9701 32.8756 11.9861 32.8976 11.9994M32.813 11.9515C32.8058 11.9352 32.7998 11.9227 32.795 11.9134C32.7904 11.9044 32.7879 11.9002 32.7876 11.8997M32.8976 11.9994C32.8976 11.9994 32.8977 11.9995 32.8977 11.9995L33.157 11.572M32.8976 11.9994C32.8477 11.9691 32.8181 11.9373 32.8065 11.9242C32.7996 11.9163 32.7948 11.91 32.7921 11.9062C32.7893 11.9024 32.7878 11.9001 32.7876 11.8997M32.8976 11.9994L33.157 11.572M33.157 11.572L32.7876 11.8997M11.1394 29.9911C11.1394 29.9911 11.1394 29.9911 11.1394 29.9911L11.1394 29.9911Z" stroke="#1F145A"/>
<path d="M22.6751 24.0761C22.8819 24.0761 23.0495 23.9047 23.0495 23.6933C23.0495 23.4819 22.8819 23.3105 22.6751 23.3105C22.4684 23.3105 22.3008 23.4819 22.3008 23.6933C22.3008 23.9047 22.4684 24.0761 22.6751 24.0761Z" fill="#1F145A"/>
<path d="M23.6154 21.7402L24.1083 37.341L23.4844 24.088L23.6154 21.7402Z" fill="#1F145A"/>
<path d="M30.7052 17.4727L31.1981 33.0734L30.5742 19.8226L30.7052 17.4727Z" fill="#1F145A"/>
<path d="M16.1935 18.5L16.6864 34.1008L16.0625 20.8478L16.1935 18.5Z" fill="#1F145A"/>
<path d="M23.6204 22.1105C22.8691 21.7204 22.1702 21.2329 21.5407 20.6602C20.8966 20.0843 20.3505 19.4031 19.9249 18.6441C19.5089 17.8935 19.1387 17.1194 18.779 16.341C18.4192 15.5627 18.0864 14.7737 17.7807 13.9677L17.7412 13.8614L17.8057 13.77C18.2216 13.1894 18.6209 12.6088 19.0389 12.0347L19.0971 12.3218L17.9533 11.7135L16.8095 11.099L16.6016 10.982L16.7971 10.848C17.2546 10.5354 17.7059 10.21 18.1675 9.91444C18.6292 9.61884 19.0826 9.2956 19.5505 9C19.1346 9.3594 18.6937 9.70391 18.2632 10.0633C17.8327 10.4227 17.396 10.7523 16.9634 11.0968L16.9426 10.8459L18.1093 11.4094L19.2698 11.9772L19.4777 12.0751L19.3488 12.2643C18.9516 12.8534 18.544 13.434 18.1405 14.0167L18.1655 13.8189C18.4795 14.6057 18.7998 15.3989 19.145 16.1752C19.4902 16.9514 19.8417 17.7276 20.216 18.491C20.6003 19.2381 21.0956 19.9196 21.6842 20.5113C22.2684 21.1176 22.9179 21.6541 23.6204 22.1105Z" fill="#1F145A"/>
<path d="M22.6953 21.4462C23.5226 21.2298 24.3105 20.8787 25.0287 20.4062C25.7441 19.9543 26.3335 19.3215 26.7402 18.5689C27.1562 17.7969 27.5721 17.0334 28.0026 16.2721C28.4331 15.5108 28.8719 14.7644 29.3169 14.0158V14.2433C28.9301 13.6479 28.5371 13.0567 28.1544 12.457L28.04 12.2635L28.248 12.172L29.4251 11.6297L30.6042 11.0981L30.5814 11.3512C30.0968 10.9811 29.6206 10.6154 29.1526 10.2389C28.6847 9.86254 28.2126 9.49038 27.751 9.10547C28.248 9.42446 28.7513 9.76684 29.2504 10.0986C29.7495 10.4303 30.2424 10.7727 30.7436 11.113L30.9515 11.2512L30.7269 11.3639L29.5582 11.9487L28.3977 12.525L28.4747 12.2401C28.8719 12.827 29.267 13.4182 29.6622 14.0073L29.7349 14.1179L29.6663 14.2348L27.0252 18.7432C26.8014 19.1382 26.521 19.4966 26.1933 19.8065C25.8689 20.1083 25.5116 20.3708 25.1285 20.5891C24.7505 20.801 24.3553 20.9788 23.9473 21.1208C23.5411 21.2701 23.1219 21.379 22.6953 21.4462Z" fill="#1F145A"/>
<path d="M18.6007 31.3866L20.516 31.697C20.7531 31.7353 20.9112 31.8289 20.9132 31.931L20.9424 33.1368L17.8062 32.486L17.7813 31.612C17.7771 31.4376 18.2014 31.3291 18.6007 31.3866Z" fill="#1F145A"/>
<path d="M28.6645 31.36L26.7429 31.613C26.5059 31.6449 26.3457 31.7321 26.3395 31.8257L26.2812 33.0124L29.4319 32.4594L29.4798 31.6088C29.4964 31.4323 29.0805 31.3068 28.6645 31.36Z" fill="#1F145A"/>
<path d="M11.5814 29.4785C11.5814 29.4785 14.9525 30.8842 15.4953 30.8736C15.4953 30.8736 11.3901 29.8103 11.2986 29.7635C11.2071 29.7167 11.4317 29.4955 11.5814 29.4785Z" fill="#1F145A"/>
<path d="M36.4787 28.9023C36.4787 28.9023 33.0743 30.2145 32.5273 30.1783C32.5273 30.1783 36.6575 29.2383 36.7532 29.1831C36.8489 29.1278 36.6284 28.9236 36.4787 28.9023Z" fill="#1F145A"/>
</g>
<defs>
<clipPath id="clip0_1696_8788">
<rect width="26.8421" height="30" fill="white" transform="translate(10.7773 9)"/>
</clipPath>
</defs>
</svg>
