<svg width="49" height="48" viewBox="0 0 49 48" fill="none" xmlns="http://www.w3.org/2000/svg">
<rect x="1.30078" y="0.5" width="47" height="47" rx="15.5" stroke="#1F145A"/>
<g clip-path="url(#clip0_1696_8809)">
<path d="M32.5802 28.754C32.584 28.166 34.0822 25.81 34.7986 24.7166L32.5802 28.754ZM32.5802 28.754C32.5802 29.377 32.5606 29.9955 32.546 30.455M32.5802 28.754L32.546 30.455M32.546 30.455C32.5451 30.4828 32.5442 30.5101 32.5434 30.5367L32.546 30.455ZM35.1718 24.154L34.7575 23.8741L34.7574 23.8742L34.757 23.8748L34.7555 23.8771L34.7497 23.8856L34.7277 23.9184C34.7084 23.9471 34.6803 23.9891 34.6446 24.0427C34.5732 24.1498 34.4713 24.3036 34.3491 24.4903C34.105 24.8636 33.7788 25.3704 33.4519 25.9024C33.1259 26.4329 32.795 26.9954 32.5437 27.4784C32.4183 27.7194 32.3085 27.9488 32.2286 28.1493C32.1562 28.3307 32.0815 28.5519 32.0802 28.7508V28.754C32.0802 29.3688 32.0608 29.9801 32.0462 30.4404L32.0437 30.5209L32.0436 30.5211C32.0419 30.576 32.0195 30.6267 31.9832 30.6632C31.9472 30.6993 31.9005 30.7188 31.8531 30.7199C31.8529 30.7199 31.8527 30.7199 31.8525 30.7199L17.39 30.9892L17.3891 30.9892C17.3803 30.9894 17.3706 30.9862 17.362 30.9783L17.0208 31.3437L17.362 30.9783C17.3533 30.9701 17.3465 30.9573 17.3456 30.9419L17.3455 30.9408L17.1883 28.5024L17.18 28.3737L17.1104 28.265L14.6343 24.398L14.0721 23.52L13.7394 24.508L14.2132 24.6676L13.7394 24.508L13.7393 24.5082L13.7391 24.5088L13.7383 24.5113L13.735 24.5211L13.722 24.5594L13.6726 24.706L13.4932 25.2368C13.3432 25.6802 13.1394 26.2814 12.9241 26.9125C12.4918 28.1802 12.0188 29.5525 11.8398 30.022L11.8394 30.0229C11.5884 30.6855 11.1384 32.0551 10.7551 33.2457C10.5626 33.8439 10.3854 34.4014 10.2564 34.8093C10.1919 35.0132 10.1395 35.1798 10.1031 35.2955L10.0856 35.3513C9.96386 35.456 9.87983 35.4835 9.83537 35.49C9.79048 35.4966 9.7305 35.4905 9.63774 35.427C9.41841 35.2768 9.16651 34.9067 8.93307 34.3538C8.70953 33.8244 8.53699 33.2109 8.42983 32.6796C8.37644 32.4148 8.34065 32.1773 8.32248 31.9872C8.30293 31.7827 8.30815 31.6747 8.31336 31.6462L8.31503 31.637L8.31636 31.6279C8.37135 31.2468 9.62474 23.86 10.384 20.2605C10.7593 18.4813 11.38 16.5101 12.2621 15.0133C13.1159 13.5646 14.1282 12.6945 15.2951 12.6646C17.5602 14.595 20.3616 15.7671 23.3143 16.0156L23.3163 16.0158C28.3084 16.4156 32.7436 14.0233 34.6899 12.7106C35.0329 12.4793 35.3654 12.4532 35.7038 12.5609C36.0647 12.6757 36.4502 12.9514 36.8211 13.3578C37.5679 14.1759 38.12 15.3722 38.2331 16.2286C38.3635 17.216 38.9384 20.2948 39.5402 23.2864C39.842 24.7864 40.152 26.2719 40.4187 27.4722C40.6818 28.6563 40.911 29.602 41.0512 29.9926C41.2852 30.6443 41.3312 31.1168 41.2912 31.5131C41.2506 31.9145 41.1195 32.2727 40.9367 32.7154C40.7072 33.2008 40.4397 33.6667 40.1367 34.1085L40.1366 34.1084L40.132 34.1155C40.1145 34.1418 40.0911 34.1621 40.0647 34.175C40.0384 34.1879 40.0097 34.1933 39.9814 34.191C39.953 34.1886 39.9252 34.1787 39.9008 34.1614L39.6114 34.5691L39.9008 34.1614C39.8766 34.1442 39.8564 34.1203 39.8431 34.0913C39.254 32.7823 38.2275 30.4794 37.3359 28.3904C36.8898 27.3454 36.4791 26.3575 36.174 25.5756C36.0213 25.1842 35.8968 24.8488 35.8079 24.5857C35.7136 24.3064 35.6747 24.1517 35.6687 24.0981L35.5171 22.7502L34.7576 23.874L35.1718 24.154Z" stroke="#1F145A"/>
<path d="M15.2266 13.3259C15.9345 13.8333 16.6821 14.2811 17.462 14.6648C18.2321 15.0537 19.0283 15.387 19.8447 15.6621C21.4674 16.2127 23.1696 16.4833 24.8805 16.4624C25.7331 16.4547 26.5829 16.3629 27.418 16.1882C28.2561 16.0203 29.078 15.7784 29.8745 15.4651C31.4813 14.8178 33.0022 13.9694 34.4018 12.9395C33.1125 14.1465 31.6371 15.1311 30.0342 15.8541C28.4113 16.5782 26.6628 16.9672 24.8903 16.9985C23.1192 17.0203 21.3601 16.6996 19.7072 16.0535C18.0625 15.4287 16.5441 14.5044 15.2266 13.3259Z" fill="#1F145A"/>
<path d="M34.9738 23.2019C34.661 22.6855 34.4079 22.1341 34.2197 21.5588C34.0232 20.9842 33.8753 20.3937 33.7775 19.7936C33.6853 19.1892 33.6557 18.5767 33.6891 17.9661C33.7253 17.3539 33.8701 16.7534 34.1165 16.1934C34.0761 16.7842 34.0711 17.3771 34.1017 17.9686C34.1337 18.2603 34.1386 18.552 34.1853 18.8412C34.2319 19.1304 34.259 19.4221 34.3007 19.7113C34.3867 20.2898 34.5022 20.8657 34.6151 21.4566L34.9738 23.2019Z" fill="#1F145A"/>
<path d="M14.2266 24.1213L14.5852 22.376C14.6982 21.7976 14.8137 21.2216 14.8996 20.6307C14.9439 20.3415 14.9905 20.0523 15.0151 19.7631C15.0397 19.4738 15.0667 19.1821 15.0986 18.8904C15.1292 18.2989 15.1243 17.7061 15.0839 17.1152C15.3305 17.6751 15.4753 18.2757 15.5113 18.8879C15.542 19.5022 15.5091 20.1181 15.413 20.7255C15.3178 21.3186 15.1732 21.9024 14.9807 22.4707C14.7923 23.0484 14.5393 23.6022 14.2266 24.1213Z" fill="#1F145A"/>
</g>
<defs>
<clipPath id="clip0_1696_8809">
<rect width="34" height="24" fill="white" transform="translate(7.80078 12)"/>
</clipPath>
</defs>
</svg>
