<svg width="48" height="48" viewBox="0 0 48 48" fill="none" xmlns="http://www.w3.org/2000/svg">
<rect x="0.5" y="0.5" width="47" height="47" rx="15.5" stroke="#1F145A"/>
<g clip-path="url(#clip0_1696_8741)">
<path d="M31.799 25.1217L31.1921 24.9957L31.1974 25.6155L31.297 37.3325C31.1085 37.3989 30.8373 37.4889 30.4911 37.5895C29.7559 37.8031 28.6835 38.0644 27.3467 38.2504C24.7484 38.6119 21.1573 38.688 17.1019 37.5811L16.903 25.7997L16.8933 25.2252L16.3261 25.3141L16.326 25.3141L16.3258 25.3142L16.3256 25.3142L16.3255 25.3142L16.3209 25.3149L16.2987 25.318C16.2782 25.3209 16.2465 25.325 16.2047 25.3299C16.1209 25.3398 15.9965 25.3526 15.8394 25.3636C15.5246 25.3857 15.0814 25.4005 14.5718 25.3712C13.63 25.3169 12.5039 25.114 11.5402 24.5648C11.546 24.5235 11.5524 24.4785 11.5593 24.4299C11.6012 24.1364 11.6627 23.7138 11.7413 23.1979C11.8985 22.1658 12.1239 20.7619 12.3967 19.2731C12.6697 17.7833 12.9891 16.2142 13.3341 14.8499C13.6603 13.5594 13.999 12.4961 14.3255 11.8525L14.3666 11.8308C14.4799 11.7712 14.6434 11.6855 14.8439 11.5818C15.2449 11.3743 15.793 11.0947 16.3816 10.8062C16.9709 10.5174 17.5972 10.2214 18.1557 9.98017C18.5586 9.80616 18.9091 9.66823 19.179 9.58023C19.2046 9.61062 19.2323 9.64305 19.2619 9.67724C19.4477 9.89168 19.7134 10.179 20.0315 10.468C20.3482 10.7556 20.7271 11.0544 21.1402 11.2833C21.5502 11.5106 22.0242 11.686 22.5221 11.686C22.652 11.686 22.7901 11.6886 22.9351 11.6912C23.586 11.7031 24.3743 11.7175 25.1683 11.5171C26.0907 11.2842 27.0185 10.7701 27.8837 9.70778C28.0044 9.75821 28.1521 9.81996 28.3205 9.89049C28.7994 10.0911 29.4453 10.3627 30.1132 10.6465C31.3935 11.1904 32.708 11.7597 33.1256 11.9734C33.1306 11.982 33.1366 11.9925 33.1433 12.0051C33.186 12.0847 33.2403 12.2073 33.3051 12.3772C33.4338 12.7147 33.585 13.1888 33.7519 13.7655C34.0848 14.9161 34.4682 16.4337 34.8439 17.9899C35.1792 19.3787 35.51 20.8063 35.7915 22.0209C36.0379 23.0842 36.2465 23.9843 36.3871 24.5523C36.3471 24.5616 36.305 24.5714 36.2609 24.5814C35.8801 24.6684 35.3585 24.7811 34.794 24.8845C34.2283 24.9881 33.6264 25.0811 33.0832 25.1302C32.5274 25.1804 32.0796 25.1799 31.799 25.1217ZM33.1053 11.9417C33.1055 11.942 33.1057 11.9424 33.106 11.9427C33.103 11.9392 33.1028 11.9385 33.1053 11.9417Z" stroke="#1F145A"/>
<path d="M18.9258 10.0988C19.5416 10.6975 20.2474 11.2022 21.0193 11.5955C21.77 11.9799 22.6067 12.1792 23.4556 12.1756C23.8763 12.1747 24.2947 12.1148 24.6977 11.9978C25.107 11.8884 25.5024 11.735 25.8766 11.5405C26.6388 11.1291 27.3481 10.6317 27.9898 10.0586C27.4609 10.7601 26.803 11.3608 26.049 11.8305C25.2779 12.3165 24.3816 12.5827 23.4621 12.599C23.0006 12.6017 22.541 12.5396 22.0977 12.4148C21.6608 12.2874 21.2426 12.106 20.8534 11.875C20.0851 11.4262 19.4272 10.82 18.9258 10.0988Z" fill="#1F145A"/>
<path d="M31.7924 23.943L31.7051 22.2663L31.6396 20.5897C31.6199 20.0308 31.5632 19.4719 31.5959 18.913C31.616 18.35 31.6817 17.7894 31.7924 17.2363H31.836C31.9467 17.7894 32.0124 18.35 32.0325 18.913C32.0653 19.4719 32.0085 20.0308 31.9889 20.5897L31.9234 22.2663L31.836 23.943H31.7924Z" fill="#1F145A"/>
<path d="M16.3896 23.943L16.3023 22.2663L16.2411 20.5897C16.2215 20.0308 16.1647 19.4719 16.1975 18.913C16.2176 18.35 16.2833 17.7894 16.3939 17.2363H16.4376C16.5482 17.7894 16.6139 18.35 16.6341 18.913C16.6668 19.4719 16.6101 20.0308 16.5904 20.5897L16.5249 22.2663L16.4376 23.943H16.3896Z" fill="#1F145A"/>
</g>
<defs>
<clipPath id="clip0_1696_8741">
<rect width="26" height="30" fill="white" transform="translate(11 9)"/>
</clipPath>
</defs>
</svg>
