<svg width="49" height="48" viewBox="0 0 49 48" fill="none" xmlns="http://www.w3.org/2000/svg">
<rect x="0.699219" y="0.5" width="47" height="47" rx="15.5" stroke="#1F145A"/>
<g clip-path="url(#clip0_1696_8887)">
<path d="M20.2697 18.7787L20.2907 18.8251L20.3205 18.8662C20.482 19.089 20.7235 19.189 20.9216 19.2364C21.1268 19.2855 21.3555 19.2955 21.582 19.2853C22.0372 19.265 22.5751 19.1585 23.0979 19.0102C23.624 18.861 24.1582 18.6629 24.6095 18.4467C25.0394 18.2407 25.4648 17.9857 25.7033 17.6972L25.8179 17.5586V17.3787C25.8166 17.3424 25.8101 17.2905 25.807 17.2747C25.805 17.2659 25.8015 17.2517 25.8 17.2461C25.7972 17.236 25.7947 17.2281 25.7939 17.2255L25.7896 17.2127L25.7867 17.2045L25.7825 17.1929C25.7793 17.184 25.7746 17.1707 25.7688 17.1533C25.757 17.1183 25.7403 17.0659 25.722 16.9998C25.685 16.8665 25.643 16.6824 25.6208 16.4762C25.5889 16.1792 25.6028 15.8818 25.6942 15.6264C25.9099 15.7118 26.2035 15.8266 26.5561 15.9608C27.3326 16.2563 28.3975 16.6469 29.5492 17.0261C30.6994 17.4048 31.9442 17.7748 33.0784 18.0271C34.1949 18.2753 35.2668 18.4245 36.042 18.3182C37.4254 18.1286 38.5107 18.0021 39.3809 18.2018C39.7996 18.298 40.1572 18.4686 40.4672 18.7439C40.7796 19.0212 41.0664 19.4251 41.3114 20.0195C41.8232 21.2614 41.7678 21.9417 41.5123 22.379C41.2358 22.8523 40.6373 23.2115 39.6421 23.5885C38.6839 23.9516 36.0684 24.619 33.58 25.2005C32.3444 25.4892 31.1536 25.7537 30.2362 25.9449C29.7772 26.0406 29.3893 26.1173 29.0995 26.1694C28.9543 26.1956 28.8372 26.2149 28.7498 26.2273C28.6858 26.2364 28.6508 26.2398 28.6365 26.2411C26.5589 26.0269 24.2341 25.4282 22.2395 24.6024C20.2792 23.7908 18.7264 22.7961 17.9949 21.8029C17.8906 20.4528 18.0136 19.4187 18.2189 18.7184C18.3253 18.3555 18.4493 18.0976 18.5629 17.9336C18.6695 17.7797 18.7359 17.7512 18.7355 17.7501C18.7354 17.7499 18.7338 17.7504 18.7305 17.7511C19.0169 17.6848 19.236 17.6633 19.4459 17.7515C19.6504 17.8375 19.9518 18.0755 20.2697 18.7787Z" stroke="#1F145A"/>
<path d="M22.918 25.1544C24.7459 24.6433 22.8531 25.0433 24.6905 24.5912C26.5246 24.1278 28.3659 23.6908 30.2048 23.2466L32.9655 22.5874C33.885 22.3725 34.8021 22.1409 35.7168 21.9116C36.1718 21.7922 36.6292 21.6728 37.0724 21.5319C37.5156 21.3909 37.9706 21.2357 38.4209 21.0876C39.3215 20.7963 40.2174 20.4882 41.1133 20.1777C40.2622 20.6028 39.3828 20.9611 38.5199 21.336C38.0791 21.5151 37.6429 21.6966 37.1973 21.8662C36.7518 22.0358 36.292 22.1743 35.837 22.3176C34.017 22.8669 32.1781 23.323 30.3368 23.772C28.4956 24.221 26.6449 24.6222 24.7895 24.9995C22.9341 25.3769 24.7899 24.8511 22.918 25.1544Z" fill="#1F145A"/>
<path d="M25.75 17.7051L28.1076 18.443C28.895 18.6819 29.6777 18.9207 30.4651 19.1356C31.2526 19.3506 32.0471 19.5488 32.8486 19.6897C33.6535 19.8443 34.472 19.914 35.2911 19.8975C34.4804 20.1276 33.6337 20.1981 32.7968 20.1052C32.3785 20.0721 31.9622 20.0171 31.5496 19.9405C31.1394 19.8545 30.7292 19.7685 30.326 19.6563C29.9229 19.544 29.541 19.4174 29.1473 19.298C28.7535 19.1786 28.3622 19.0162 27.9685 18.849C27.2004 18.5276 26.4586 18.145 25.75 17.7051Z" fill="#1F145A"/>
<path d="M27.6566 17.5862C27.6166 17.4597 27.6069 17.3255 27.6283 17.1945C27.6461 17.0809 27.6862 16.9721 27.7461 16.8745C27.8384 16.7143 27.98 16.5893 28.1493 16.5186C28.2228 16.4824 28.3073 16.4764 28.385 16.5019C28.3681 16.5642 28.3594 16.6284 28.3591 16.693C28.3535 16.7493 28.3441 16.8052 28.3308 16.8602C28.3002 16.9631 28.2541 17.0605 28.1941 17.1491C28.1376 17.2391 28.0676 17.3197 27.9866 17.388C27.8912 17.4762 27.7788 17.5437 27.6566 17.5862Z" fill="#1F145A"/>
<path d="M29.6894 18.265C29.6471 18.1365 29.6374 17.9994 29.6611 17.8661C29.6796 17.7523 29.7187 17.643 29.7766 17.5437C29.8375 17.4421 29.9176 17.3536 30.0124 17.2834C30.0652 17.2445 30.1231 17.2131 30.1845 17.1903C30.2537 17.157 30.3327 17.1511 30.4061 17.1736C30.3898 17.2359 30.3819 17.3001 30.3825 17.3646C30.3825 17.4219 30.3731 17.4769 30.3542 17.5294C30.3298 17.6328 30.29 17.7318 30.2364 17.8231C30.1785 17.9129 30.1078 17.9934 30.0265 18.062C29.9299 18.1534 29.8149 18.2227 29.6894 18.265Z" fill="#1F145A"/>
<path d="M31.455 18.8075C31.4127 18.6807 31.403 18.5451 31.4267 18.4134C31.4452 18.3004 31.4844 18.1919 31.5423 18.0934C31.6032 17.9918 31.6833 17.9033 31.778 17.8331C31.8309 17.7941 31.8888 17.7628 31.9501 17.74C32.0191 17.7056 32.0985 17.6996 32.1717 17.7232C32.1558 17.7849 32.1471 17.8482 32.1458 17.9119C32.141 17.9682 32.1323 18.024 32.1199 18.0791C32.0948 18.1815 32.0551 18.2797 32.002 18.3704C31.9453 18.4611 31.8744 18.5417 31.7922 18.6093C31.6944 18.6981 31.5796 18.7655 31.455 18.8075Z" fill="#1F145A"/>
<path d="M33.4316 19.1992C33.3893 19.0732 33.3795 18.9384 33.4033 18.8075C33.4209 18.6923 33.4608 18.5817 33.5207 18.4821C33.5805 18.3826 33.6592 18.2959 33.7522 18.2272C33.8055 18.1883 33.8633 18.1562 33.9243 18.1317C33.9936 18.0984 34.0726 18.0925 34.1459 18.115C34.1302 18.1774 34.1215 18.2415 34.12 18.306C34.1152 18.3615 34.1065 18.4166 34.0941 18.4708C34.0686 18.5738 34.0289 18.6727 33.9762 18.7646C33.9195 18.8552 33.8486 18.9358 33.7664 19.0034C33.6697 19.0919 33.5556 19.1587 33.4316 19.1992Z" fill="#1F145A"/>
<path d="M35.9852 21.4838C35.8136 21.1843 35.682 20.863 35.5938 20.5285C35.5474 20.366 35.5104 20.201 35.483 20.0341C35.4491 19.8524 35.438 19.667 35.45 19.4825C35.478 19.1013 35.6297 18.7402 35.8814 18.4555C36.1176 18.1858 36.4335 18.0007 36.782 17.9277C36.5461 18.1446 36.3463 18.3986 36.1903 18.68C36.0549 18.937 35.9806 19.2224 35.9734 19.5135C35.9713 19.6622 35.9816 19.8108 36.004 19.9577C36.0229 20.1201 36.0394 20.2849 36.0465 20.4521C36.0695 20.7972 36.0489 21.1439 35.9852 21.4838Z" fill="#1F145A"/>
<path d="M18.7734 21.0583C19.286 21.0014 19.8044 21.0345 20.3059 21.1562C20.8152 21.2726 21.3052 21.4633 21.7605 21.7222C22.2135 21.9916 22.6132 22.3439 22.9393 22.7611C23.2668 23.1779 23.4879 23.6701 23.5829 24.194C23.3076 23.782 22.9917 23.3995 22.6398 23.0525C22.5597 22.9641 22.456 22.8972 22.3687 22.8136C22.2802 22.7324 22.1856 22.6581 22.0858 22.5915C21.9868 22.5247 21.8949 22.4482 21.7958 22.3814L21.4894 22.1975C21.069 21.9546 20.6317 21.7431 20.1809 21.5646C19.7283 21.3759 19.2615 21.2088 18.7734 21.0583Z" fill="#1F145A"/>
<path d="M9.79728 23.0146L9.80651 23.0661L9.82621 23.1146C9.92939 23.3685 10.1387 23.5238 10.3192 23.6181C10.5062 23.7158 10.7255 23.7816 10.9476 23.8273C11.3942 23.9193 11.9416 23.948 12.4845 23.9325C13.0307 23.9168 13.5967 23.8556 14.0867 23.7563C14.5534 23.6616 15.0283 23.518 15.33 23.2951L15.3152 23.2751C15.3774 23.2362 15.4285 23.195 15.4533 23.1636C15.4787 23.1193 15.5091 23.0452 15.5172 23.0172C15.5289 22.9716 15.5313 22.9342 15.5319 22.9253L15.5319 22.9247C15.5334 22.9007 15.5328 22.8815 15.5327 22.8772L15.5327 22.8768C15.5323 22.8645 15.5316 22.8542 15.5314 22.852L15.5298 22.8323L15.5297 22.8313C15.5287 22.8199 15.5275 22.8057 15.5261 22.7874C15.5233 22.7499 15.5199 22.6948 15.5182 22.6263C15.5148 22.488 15.5185 22.2993 15.5468 22.0942C15.5873 21.7991 15.672 21.5152 15.821 21.2905C16.0098 21.4265 16.2671 21.61 16.5769 21.8269C17.2594 22.3048 18.1989 22.9458 19.2251 23.5972C20.25 24.2477 21.3686 24.9131 22.408 25.437C23.431 25.9526 24.4343 26.3612 25.2108 26.4491C26.5965 26.6059 27.6798 26.7502 28.4767 27.1585C28.8603 27.3551 29.1672 27.6091 29.4026 27.9534C29.6399 28.3002 29.8215 28.7633 29.9167 29.4007C30.1157 30.7329 29.898 31.3779 29.5465 31.7374C29.1658 32.1269 28.5 32.3276 27.443 32.4482C26.9539 32.504 25.4752 32.5119 23.4705 32.4849C21.4853 32.4582 19.0286 32.3983 16.6186 32.3258C14.2088 32.2533 11.8476 32.1683 10.0539 32.0914C9.15681 32.053 8.40331 32.0167 7.85723 31.9851C7.58382 31.9692 7.36506 31.9547 7.20731 31.9419C7.13896 31.9364 7.08452 31.9313 7.04334 31.9269C7.02097 31.8931 6.99019 31.8356 6.9562 31.7462C6.87335 31.5282 6.7992 31.195 6.75294 30.752C6.66103 29.8716 6.68772 28.6426 6.90541 27.2297C7.12375 25.8125 7.49899 24.3353 7.89205 23.2221C8.08949 22.6629 8.28488 22.2144 8.45809 21.9155C8.53721 21.779 8.60171 21.6913 8.64771 21.6411C8.88981 21.6535 9.08109 21.6935 9.24483 21.8161C9.42494 21.9509 9.6614 22.2564 9.79728 23.0146ZM7.06745 31.9582C7.06745 31.9582 7.06699 31.9578 7.06611 31.9569C7.06701 31.9577 7.06746 31.9582 7.06745 31.9582ZM8.68928 21.6021C8.68927 21.6023 8.68705 21.6042 8.68267 21.6069C8.68711 21.6032 8.6893 21.6019 8.68928 21.6021Z" stroke="#1F145A"/>
<path d="M7.02344 29.7881C8.90949 29.7451 10.8018 29.7292 12.7004 29.7403C14.5865 29.7403 16.4843 29.7714 18.3727 29.7953L21.2018 29.8335C22.1448 29.8502 23.0879 29.8526 24.0309 29.855C24.5024 29.855 24.9739 29.855 25.4454 29.8215C25.9169 29.7881 26.3885 29.7571 26.86 29.7236C27.803 29.6615 28.746 29.5851 29.689 29.5039C28.7625 29.7045 27.8242 29.8359 26.8883 29.9816C26.4167 30.046 25.9452 30.1153 25.4737 30.1702C25.0022 30.2251 24.5307 30.2466 24.045 30.2729C22.159 30.3565 20.2541 30.3469 18.361 30.3278C16.4678 30.3087 14.5771 30.2443 12.6863 30.1535C10.7955 30.0627 8.90949 29.9553 7.02344 29.7881Z" fill="#1F145A"/>
<path d="M15.3789 23.3223L17.5007 24.6191C18.208 25.0489 18.9153 25.4788 19.6225 25.8729C20.3298 26.2669 21.0559 26.6634 21.8009 26.9977C22.5437 27.3462 23.3204 27.6152 24.1184 27.8002C23.2766 27.8229 22.4381 27.6836 21.6477 27.3894C21.2445 27.2628 20.865 27.0861 20.4689 26.9118C20.0728 26.7374 19.7145 26.5416 19.3514 26.3362C18.9883 26.1308 18.6323 25.9063 18.2787 25.6818C17.9251 25.4573 17.5856 25.2042 17.2555 24.9654C16.5877 24.4693 15.9601 23.9198 15.3789 23.3223Z" fill="#1F145A"/>
<path d="M17.2476 23.6736C17.2398 23.541 17.2632 23.4084 17.3159 23.2867C17.406 23.0716 17.575 22.9003 17.7874 22.8091C17.8483 22.7854 17.9115 22.7685 17.976 22.7589C18.0516 22.7453 18.1294 22.7597 18.1953 22.7995C18.1653 22.8556 18.1416 22.9149 18.1246 22.9763C18.1064 23.0296 18.0844 23.0815 18.0586 23.1315C18.0098 23.2252 17.9478 23.3113 17.8747 23.387C17.7973 23.4629 17.7091 23.5265 17.613 23.5757C17.4992 23.6337 17.3748 23.667 17.2476 23.6736Z" fill="#1F145A"/>
<path d="M19.064 24.8351C19.056 24.7017 19.0795 24.5683 19.1324 24.4459C19.1783 24.3407 19.243 24.2452 19.3234 24.1641C19.4046 24.0796 19.5027 24.0137 19.611 23.9706C19.6711 23.9447 19.7346 23.9278 19.7996 23.9205C19.8748 23.9047 19.9531 23.9183 20.0188 23.9587C19.9884 24.0154 19.9647 24.0755 19.9481 24.1378C19.9304 24.1905 19.9083 24.2417 19.8821 24.2906C19.8345 24.3873 19.7725 24.4759 19.6982 24.5533C19.6215 24.6299 19.5331 24.6936 19.4365 24.742C19.3199 24.7983 19.1931 24.8299 19.064 24.8351Z" fill="#1F145A"/>
<path d="M20.6467 25.7917C20.637 25.6592 20.6597 25.5263 20.7127 25.4048C20.758 25.2993 20.8228 25.2037 20.9037 25.123C20.9854 25.0386 21.0833 24.9719 21.1913 24.9272C21.2519 24.9031 21.3153 24.8871 21.3799 24.8794C21.4559 24.8637 21.5349 24.8773 21.6015 24.9176C21.5691 24.9733 21.5453 25.0337 21.5308 25.0967C21.5121 25.1491 21.49 25.2001 21.4648 25.2496C21.4188 25.344 21.3592 25.4309 21.288 25.5075C21.2112 25.5841 21.1229 25.6478 21.0263 25.6962C20.908 25.7553 20.7785 25.7879 20.6467 25.7917Z" fill="#1F145A"/>
<path d="M22.467 26.6619C22.4574 26.5294 22.48 26.3965 22.533 26.275C22.6231 26.0598 22.7921 25.8886 23.0045 25.7974C23.0654 25.7736 23.1286 25.7568 23.1931 25.7472C23.2687 25.7335 23.3465 25.748 23.4124 25.7878C23.382 25.8434 23.359 25.9028 23.344 25.9645C23.3253 26.0177 23.3033 26.0695 23.278 26.1198C23.2276 26.2131 23.1649 26.299 23.0918 26.3753C23.0144 26.4512 22.9262 26.5148 22.8301 26.564C22.717 26.6217 22.5934 26.655 22.467 26.6619Z" fill="#1F145A"/>
<path d="M24.4001 29.5067C24.3043 29.177 24.2536 28.8355 24.2493 28.4917C24.2398 28.3231 24.2398 28.1541 24.2493 27.9854C24.2607 27.801 24.2955 27.6187 24.353 27.4433C24.4704 27.0796 24.7044 26.7661 25.0178 26.5525C25.3113 26.3488 25.6619 26.2466 26.0174 26.2611C25.7361 26.4131 25.4812 26.6108 25.263 26.8462C25.0693 27.0614 24.9287 27.32 24.8528 27.6009C24.8146 27.7441 24.7885 27.8903 24.775 28.038C24.7538 28.2004 24.7326 28.3652 24.6996 28.5299C24.6404 28.8669 24.5398 29.1951 24.4001 29.5067Z" fill="#1F145A"/>
<path d="M7.80859 24.8555C8.31919 24.9289 8.81358 25.0905 9.27028 25.3331C9.73601 25.5712 10.1649 25.8769 10.5434 26.2406C10.9234 26.6125 11.2312 27.0531 11.451 27.5398C11.6664 28.0227 11.7634 28.5512 11.7339 29.0802C11.5628 28.612 11.3456 28.1623 11.0856 27.738C11.029 27.633 10.9442 27.5422 10.8781 27.4419C10.8126 27.3415 10.7393 27.2464 10.6589 27.1577C10.5787 27.0693 10.508 26.9714 10.4231 26.8831L10.1685 26.6275C9.81939 26.2896 9.44672 25.9775 9.05339 25.6937C8.65732 25.4 8.24474 25.1277 7.80859 24.8555Z" fill="#1F145A"/>
</g>
<defs>
<clipPath id="clip0_1696_8887">
<rect width="36" height="18" fill="white" transform="translate(6.19922 15)"/>
</clipPath>
</defs>
</svg>
