<svg width="49" height="48" viewBox="0 0 49 48" fill="none" xmlns="http://www.w3.org/2000/svg">
<rect x="1.10156" y="0.5" width="47" height="47" rx="15.5" stroke="#1F145A"/>
<g clip-path="url(#clip0_1696_8755)">
<path d="M32.1084 25.1225L31.4978 24.9907L31.5029 25.6154L31.5988 37.3372C31.4183 37.4031 31.1605 37.4919 30.8325 37.591C30.1269 37.8042 29.0975 38.0651 27.8142 38.2508C25.3219 38.6115 21.878 38.6876 17.988 37.5851L17.7967 25.8L17.7873 25.2216L17.2169 25.3146L17.2167 25.3146L17.2165 25.3146L17.2164 25.3147L17.2163 25.3147L17.2122 25.3153L17.1912 25.3184C17.1717 25.3212 17.1415 25.3253 17.1015 25.3302C17.0215 25.34 16.9025 25.3527 16.7521 25.3637C16.4507 25.3857 16.0262 25.4005 15.5383 25.3712C14.6369 25.3172 13.5606 25.1155 12.6393 24.57C12.6452 24.5265 12.6517 24.4789 12.6588 24.4272C12.699 24.1337 12.7582 23.711 12.8337 23.1951C12.9849 22.1629 13.2017 20.7588 13.464 19.2698C13.7266 17.7797 14.0338 16.2102 14.3656 14.8455C14.6792 13.5553 15.005 12.4912 15.3193 11.8464L15.3549 11.8269C15.4637 11.7673 15.6209 11.6817 15.8136 11.578C16.1991 11.3705 16.7259 11.0911 17.2916 10.8027C17.8581 10.514 18.4599 10.2182 18.9963 9.97725C19.3731 9.80797 19.7011 9.67344 19.9557 9.58582C19.9773 9.61242 20.0004 9.6405 20.0249 9.66987C20.2036 9.88438 20.4593 10.172 20.7656 10.4614C21.0704 10.7493 21.4359 11.049 21.8351 11.2792C22.231 11.5074 22.6927 11.686 23.1805 11.686C23.3042 11.686 23.4363 11.6886 23.5751 11.6912C24.201 11.7032 24.9654 11.7178 25.7343 11.5159C26.6249 11.2821 27.5161 10.7679 28.3451 9.71508C28.4568 9.76357 28.5907 9.82181 28.7419 9.88771C29.2024 10.0883 29.8234 10.3599 30.4656 10.6436C31.6937 11.1863 32.9521 11.7531 33.3561 11.9675C33.3609 11.9759 33.3663 11.986 33.3725 11.998C33.4138 12.0779 33.4662 12.201 33.5286 12.3712C33.6524 12.7091 33.798 13.1837 33.9585 13.7606C34.2787 14.9115 34.6475 16.4294 35.0087 17.9856C35.3313 19.3753 35.6495 20.8033 35.9201 22.018C36.158 23.0856 36.3592 23.9885 36.4944 24.5556C36.4587 24.5642 36.4213 24.5732 36.3824 24.5824C36.0166 24.6693 35.5156 24.7819 34.9735 24.8851C34.4301 24.9886 33.8526 25.0814 33.3319 25.1303C32.7982 25.1805 32.3724 25.1795 32.1084 25.1225ZM33.3357 11.9342C33.336 11.9346 33.3363 11.935 33.3366 11.9355C33.3334 11.9315 33.3331 11.9307 33.3357 11.9342Z" stroke="#1F145A"/>
<path d="M20.1408 9C19.7777 9.4234 19.4082 9.8341 19.0409 10.249V10.1622C19.53 10.8376 20.0107 11.5192 20.4892 12.203C20.9678 12.8868 21.4422 13.5706 21.9082 14.2629L21.6102 14.2502L22.8318 12.6878L24.0661 11.1361L24.2298 10.9244L24.3914 11.1361L25.5963 12.6391L26.7949 14.1485L26.4989 14.1676L27.7982 12.1353C28.232 11.4578 28.6728 10.7853 29.1207 10.1178V10.1919C28.8037 9.82986 28.4909 9.46786 28.1782 9.0995C28.5252 9.43257 28.8688 9.76847 29.2088 10.1072L29.2403 10.1389L29.2172 10.1813C28.8254 10.887 28.4266 11.5863 28.0207 12.2792L26.7949 14.3602L26.6647 14.5719L26.4989 14.3708L25.273 12.8889L24.0661 11.4007H24.3914L23.1509 12.9482L21.9061 14.483L21.7445 14.682L21.6081 14.4703C21.1505 13.7717 20.7055 13.0668 20.2562 12.3639C19.807 11.6611 19.3683 10.9519 18.9338 10.2469L18.9023 10.1982L18.9401 10.1601C19.339 9.76635 19.7357 9.37894 20.1408 9Z" fill="#1F145A"/>
<path d="M24.2802 14.0863C24.4888 14.0863 24.658 13.9157 24.658 13.7053C24.658 13.4948 24.4888 13.3242 24.2802 13.3242C24.0715 13.3242 23.9023 13.4948 23.9023 13.7053C23.9023 13.9157 24.0715 14.0863 24.2802 14.0863Z" fill="#1F145A"/>
<path d="M24.4833 19.4731C24.692 19.4731 24.8611 19.3025 24.8611 19.092C24.8611 18.8815 24.692 18.7109 24.4833 18.7109C24.2746 18.7109 24.1055 18.8815 24.1055 19.092C24.1055 19.3025 24.2746 19.4731 24.4833 19.4731Z" fill="#1F145A"/>
<path d="M24.6317 25.8754C24.8404 25.8754 25.0096 25.7048 25.0096 25.4943C25.0096 25.2839 24.8404 25.1133 24.6317 25.1133C24.4231 25.1133 24.2539 25.2839 24.2539 25.4943C24.2539 25.7048 24.4231 25.8754 24.6317 25.8754Z" fill="#1F145A"/>
<path d="M24.6317 32.5551C24.8404 32.5551 25.0096 32.3845 25.0096 32.174C25.0096 31.9636 24.8404 31.793 24.6317 31.793C24.4231 31.793 24.2539 31.9636 24.2539 32.174C24.2539 32.3845 24.4231 32.5551 24.6317 32.5551Z" fill="white"/>
<path d="M23.3742 13.1465L24.0795 37.0771L23.2734 16.7539L23.3742 13.1465Z" fill="#1F145A"/>
<path d="M21.4132 12.414C21.4132 12.414 21.071 11.7429 21.4132 11.8487C21.7553 11.9546 21.6588 12.0985 21.7805 12.4076C21.9023 12.7167 21.9673 11.4825 22.3872 11.8445C22.807 12.2065 22.7629 12.9665 22.4228 12.7971C22.0828 12.6278 21.8645 12.162 21.896 12.6151C21.9275 13.0681 23.0295 13.6418 22.2507 13.5826C21.472 13.5233 21.8456 13.1083 21.7574 12.8098C21.6693 12.5114 21.0081 13.4725 20.9451 12.9009C20.929 12.835 20.9298 12.7662 20.9474 12.7007C20.9649 12.6353 20.9987 12.5754 21.0455 12.5267C21.0923 12.4781 21.1506 12.4422 21.2149 12.4225C21.2792 12.4027 21.3474 12.3998 21.4132 12.414Z" fill="#1F145A"/>
<path d="M16.1724 16.4095C16.1724 16.4095 15.8282 15.7384 16.1724 15.8442C16.5167 15.9501 16.4117 16.0919 16.5314 16.4095C16.651 16.727 16.7182 15.4759 17.138 15.8379C17.5578 16.1999 17.5137 16.962 17.1737 16.7905C16.8336 16.6191 16.6153 16.1554 16.6468 16.6085C16.6783 17.0615 17.7824 17.6352 17.0016 17.5759C16.2207 17.5167 16.6048 17.1017 16.5083 16.8096C16.4117 16.5174 15.7589 17.4722 15.6959 16.9006C15.679 16.8337 15.6795 16.7636 15.6973 16.6969C15.715 16.6303 15.7495 16.5694 15.7974 16.52C15.8452 16.4707 15.9049 16.4346 15.9705 16.4152C16.0362 16.3959 16.1058 16.3939 16.1724 16.4095Z" fill="#1F145A"/>
<path d="M13.669 23.6192C13.669 23.6192 13.3269 22.9502 13.669 23.0561C14.0112 23.1619 13.9083 23.3038 14.0301 23.6065C14.1518 23.9092 14.2148 22.6835 14.6451 23.0434C15.0754 23.4033 15.0208 24.1675 14.6808 23.996C14.3407 23.8245 14.1224 23.3609 14.1539 23.8161C14.1854 24.2712 15.2874 24.8407 14.5087 24.7814C13.7299 24.7222 14.1014 24.3136 14.0154 24.0299C13.9293 23.7462 13.266 24.6925 13.203 24.1209C13.184 24.0543 13.1824 23.9839 13.1985 23.9165C13.2146 23.8491 13.2477 23.7871 13.2947 23.7365C13.3417 23.6859 13.4009 23.6485 13.4665 23.628C13.5321 23.6074 13.6019 23.6044 13.669 23.6192Z" fill="#1F145A"/>
<path d="M17.661 11.7792C17.661 11.7792 17.3188 11.1081 17.661 11.214C18.0031 11.3198 17.9066 11.4638 18.0283 11.7729C18.1501 12.0819 18.213 10.8477 18.6433 11.2097C19.0736 11.5717 19.0191 12.3317 18.679 12.1624C18.339 11.993 18.1207 11.5273 18.1522 11.9803C18.1836 12.4334 19.2857 13.0071 18.5069 12.9478C17.7281 12.8885 18.0934 12.4736 18.0073 12.1751C17.9213 11.8766 17.2579 12.8377 17.195 12.2661C17.179 12.2005 17.1798 12.1319 17.1973 12.0666C17.2148 12.0014 17.2483 11.9417 17.2949 11.8931C17.3414 11.8445 17.3994 11.8085 17.4634 11.7886C17.5274 11.7687 17.5954 11.7655 17.661 11.7792Z" fill="#1F145A"/>
<path d="M28.1766 19.5639C28.1766 19.5639 28.4369 19.0431 28.5628 19.3268C28.6888 19.6105 28.5376 19.6062 28.3949 19.82C28.2521 20.0339 29.1464 19.5745 29.1527 20.0317C29.1589 20.489 28.5985 20.7621 28.5229 20.4551C28.4474 20.1482 28.6279 19.7946 28.334 20.0021C28.0401 20.2096 28.2899 21.2278 27.8659 20.6435C27.4419 20.0593 27.952 20.1588 28.1031 19.9767C28.2542 19.7946 27.1963 19.71 27.5553 19.4305C27.9142 19.1511 28.1766 19.5639 28.1766 19.5639Z" fill="#1F145A"/>
<path d="M33.8943 19.7844C33.8943 19.7844 33.5521 19.1155 33.8943 19.2213C34.2364 19.3272 34.1399 19.469 34.2616 19.7781C34.3834 20.0872 34.4463 18.8551 34.8767 19.215C35.307 19.5749 35.2524 20.3391 34.9123 20.1676C34.5723 19.9961 34.354 19.5325 34.3855 19.9877C34.417 20.4428 35.519 21.0123 34.7402 20.953C33.9615 20.8937 34.333 20.4788 34.2469 20.1867C34.1609 19.8945 33.4976 20.8493 33.4346 20.2777C33.4178 20.2123 33.4176 20.1436 33.4342 20.0781C33.4508 20.0126 33.4836 19.9524 33.5295 19.9032C33.5754 19.8539 33.633 19.8172 33.6967 19.7964C33.7605 19.7757 33.8285 19.7715 33.8943 19.7844Z" fill="#1F145A"/>
<path d="M32.6599 14.8294C32.6599 14.8294 32.3178 14.1604 32.6599 14.2662C33.0021 14.3721 32.9055 14.5139 33.0273 14.823C33.149 15.1321 33.212 13.9 33.6423 14.2599C34.0726 14.6198 34.018 15.384 33.678 15.2125C33.3379 15.0411 33.1196 14.5774 33.1511 15.0326C33.1826 15.4877 34.2846 16.0572 33.5058 15.9979C32.7271 15.9387 33.0986 15.5237 33.0126 15.2316C32.9265 14.9394 32.2632 15.8942 32.2002 15.3226C32.1834 15.2572 32.1833 15.1885 32.1999 15.123C32.2165 15.0575 32.2492 14.9974 32.2951 14.9481C32.3411 14.8988 32.3986 14.8621 32.4624 14.8414C32.5262 14.8206 32.5941 14.8165 32.6599 14.8294Z" fill="#1F145A"/>
<path d="M22.216 23.7727C22.216 23.7727 22.5581 23.4171 22.5581 23.6457C22.5581 23.8743 22.4532 23.8574 22.2874 23.9908C22.1215 24.1242 22.8856 23.9019 22.747 24.2406C22.6085 24.5793 22.1362 24.7148 22.1782 24.4713C22.2202 24.2279 22.4574 23.9929 22.1887 24.1115C21.92 24.23 21.7689 25.0239 21.6681 24.5349C21.5674 24.0458 21.878 24.1855 22.0418 24.0691C22.2055 23.9527 21.496 23.7558 21.8319 23.5928C21.8671 23.5682 21.908 23.5534 21.9507 23.5497C21.9933 23.5461 22.0362 23.5537 22.075 23.5719C22.1138 23.5901 22.1472 23.6182 22.172 23.6534C22.1967 23.6886 22.2119 23.7298 22.216 23.7727Z" fill="#1F145A"/>
<path d="M18.1404 28.4765C18.1404 28.4765 17.7982 27.8054 18.1404 27.9112C18.4825 28.0171 18.386 28.161 18.5077 28.4701C18.6295 28.7792 18.6924 27.545 19.1228 27.907C19.5531 28.269 19.4985 29.029 19.1584 28.8596C18.8184 28.6903 18.6001 28.2245 18.6316 28.6776C18.6631 29.1306 19.7651 29.7043 18.9863 29.6451C18.2076 29.5858 18.5791 29.1708 18.493 28.8787C18.407 28.5866 17.7437 29.5413 17.6807 28.9697C17.6639 28.9043 17.6637 28.8356 17.6803 28.7701C17.6969 28.7046 17.7297 28.6445 17.7756 28.5952C17.8215 28.5459 17.8791 28.5092 17.9428 28.4885C18.0066 28.4677 18.0746 28.4636 18.1404 28.4765Z" fill="#1F145A"/>
<path d="M29.699 29.9179C29.699 29.9179 29.3568 29.2468 29.699 29.3526C30.0411 29.4585 29.9446 29.6024 30.0663 29.9115C30.1881 30.2206 30.251 28.9864 30.6813 29.3484C31.1117 29.7104 31.0571 30.4704 30.717 30.3011C30.377 30.1317 30.1587 29.666 30.1902 30.119C30.2216 30.572 31.3237 31.1457 30.5449 31.0865C29.7661 31.0272 30.1377 30.6122 30.0516 30.3201C29.9656 30.028 29.3023 30.9827 29.2393 30.4111C29.2224 30.3457 29.2223 30.277 29.2389 30.2115C29.2555 30.146 29.2883 30.0859 29.3342 30.0366C29.3801 29.9874 29.4376 29.9506 29.5014 29.9299C29.5652 29.9091 29.6332 29.905 29.699 29.9179Z" fill="#1F145A"/>
<path d="M29.6755 35.8632C29.6755 35.8632 29.3334 35.1921 29.6755 35.2979C30.0177 35.4038 29.9211 35.5478 30.0429 35.8568C30.1646 36.1659 30.2276 34.9317 30.6579 35.2937C31.0882 35.6557 31.0336 36.4157 30.6936 36.2464C30.3535 36.077 30.1352 35.6113 30.1667 36.0643C30.1982 36.5173 31.3002 37.091 30.5215 37.0318C29.7427 36.9725 30.1142 36.5576 30.0282 36.2654C29.9421 35.9733 29.2788 36.928 29.2158 36.3564C29.199 36.291 29.1989 36.2223 29.2155 36.1569C29.2321 36.0914 29.2649 36.0312 29.3108 35.9819C29.3567 35.9327 29.4142 35.8959 29.478 35.8752C29.5418 35.8544 29.6097 35.8503 29.6755 35.8632Z" fill="#1F145A"/>
<path d="M25.9959 33.7792C25.9959 33.7792 25.6537 33.1081 25.9959 33.214C26.338 33.3198 26.2414 33.4638 26.3632 33.7729C26.4849 34.0819 26.5479 32.8477 26.9782 33.2097C27.4085 33.5717 27.354 34.3317 27.0139 34.1624C26.6739 33.993 26.4556 33.5273 26.487 33.9803C26.5185 34.4334 27.6205 35.0071 26.8418 34.9478C26.063 34.8885 26.4346 34.4736 26.3485 34.1814C26.2624 33.8893 25.5991 34.8441 25.5362 34.2725C25.5193 34.207 25.5192 34.1384 25.5358 34.0729C25.5524 34.0074 25.5852 33.9472 25.6311 33.8979C25.677 33.8487 25.7345 33.812 25.7983 33.7912C25.8621 33.7704 25.9301 33.7663 25.9959 33.7792Z" fill="#1F145A"/>
<path d="M18.9568 36.1946C18.9568 36.1946 18.6146 35.5256 18.9568 35.6315C19.2989 35.7373 19.2024 35.8792 19.3241 36.1882C19.4459 36.4973 19.5088 35.2652 19.9392 35.6251C20.3695 35.985 20.3149 36.7493 19.9748 36.5778C19.6348 36.4063 19.4165 35.9427 19.448 36.3978C19.4795 36.853 20.5815 37.4225 19.8027 37.3632C19.024 37.3039 19.3955 36.889 19.3094 36.5968C19.2234 36.3047 18.5601 37.2594 18.4971 36.6879C18.4803 36.6224 18.4801 36.5538 18.4967 36.4883C18.5133 36.4228 18.5461 36.3626 18.592 36.3133C18.6379 36.2641 18.6955 36.2274 18.7592 36.2066C18.823 36.1858 18.891 36.1817 18.9568 36.1946Z" fill="#1F145A"/>
<path d="M27.9824 10.4393C27.9824 10.4393 27.7955 10.0731 27.9824 10.1345C28.1692 10.1959 28.1146 10.2721 28.1923 10.4414C28.2699 10.6108 28.2636 9.94393 28.4861 10.1429C28.7086 10.3419 28.696 10.7547 28.5155 10.6595C28.335 10.5642 28.2154 10.3102 28.2384 10.5557C28.2615 10.8013 28.843 11.1231 28.4337 11.0829C28.0243 11.0427 28.2237 10.8204 28.1692 10.6595C28.1146 10.4986 27.785 11.0088 27.7494 10.6997C27.7137 10.3906 27.9824 10.4393 27.9824 10.4393Z" fill="#1F145A"/>
<path d="M33.0463 12.5724C33.4662 12.6126 32.4166 13.0614 32.0157 11.8399C31.6148 10.6184 29.417 10.5697 28.9636 10.1293C28.5102 9.689 29.5409 9.7631 30.1181 11.8399C30.6954 13.9166 32.3054 14.0394 32.2634 13.7452C32.2214 13.4509 30.0363 13.5102 29.459 13.1016C28.8818 12.693 27.3956 10.7729 27.7672 10.8618C28.1387 10.9507 28.5501 13.4678 29.0455 13.9971C29.5409 14.5263 30.9011 15.587 31.2013 15.2207C31.5014 14.8545 29.1799 15.0979 28.4368 14.7317C27.6937 14.3655 25.7982 11.4334 26.3377 11.6769C26.8772 11.9203 26.7575 14.4861 27.1626 15.0154C27.5678 15.5446 29.9271 17.0519 30.1013 16.8085C30.2756 16.565 28.6824 16.6455 27.5195 16.1564C26.3566 15.6674 24.9208 12.6549 25.1265 12.4919C25.3322 12.3289 25.4561 14.7719 25.7563 15.75C26.0564 16.728 27.7252 18.3158 28.1387 18.2332C28.5522 18.1506 26.5287 17.9474 25.9116 17.5007C25.2945 17.054 22.9414 13.8341 23.3108 13.7536C23.6803 13.6732 24.014 15.5446 24.2197 16.4825C24.4254 17.4203 25.5799 19.5775 26.0333 19.658C26.4867 19.7384 25.1685 19.4463 24.1442 18.682C23.1198 17.9178 21.4972 14.6894 22.1563 14.9751C22.8155 15.2609 22.404 18.6397 22.8574 19.586C23.3108 20.5323 24.2197 21.3367 24.4254 21.0933C24.6312 20.8498 22.6937 20.7249 22.1563 20.2782C21.619 19.8315 19.2701 16.2559 19.9712 16.2559C20.6723 16.2559 20.1349 18.8217 20.5065 19.7193C20.878 20.617 21.9506 22.5286 22.4859 22.5286C23.0212 22.5286 21.5455 22.3868 20.7059 21.703C19.8663 21.0192 17.7672 17.5494 18.4389 17.5896C19.1106 17.6299 18.6488 20.6042 18.7265 21.4595C18.8041 22.3148 20.7961 24.7091 21.0019 24.5863C21.2076 24.4635 19.5577 23.242 18.3969 22.6323C17.2361 22.0226 15.4582 18.5592 15.8402 18.682C16.2223 18.8048 17.0346 22.6323 17.3243 23.4876C17.6139 24.3429 19.2365 26.5001 19.5577 26.2969C19.8788 26.0936 18.6068 25.8481 17.9498 25.3188C17.2928 24.7896 13.1639 19.7003 13.865 19.9035C14.5661 20.1068 14.4422 21.7347 14.7319 22.4693C15.0216 23.2039 20.1769 23.4453 22.2403 21.2796C24.3037 19.1139 24.3835 11.7531 33.0463 12.5724Z" fill="#1F145A"/>
<path d="M34.1096 22.126C34.4644 22.1683 33.5849 22.6701 33.2364 21.3067C32.888 19.9434 31.0345 19.8989 30.6504 19.4014C30.2662 18.9039 31.1394 18.9928 31.6285 21.3067C32.1176 23.6206 33.4799 23.7603 33.4442 23.4428C33.4085 23.1252 31.5551 23.1697 31.0702 22.7166C30.5853 22.2636 29.3153 20.1191 29.6365 20.2207C29.9577 20.3223 30.2998 23.1273 30.7196 23.7159C31.1394 24.3044 32.2918 25.4878 32.5374 25.0792C32.783 24.6706 30.8246 24.9437 30.1949 24.5352C29.5651 24.1266 27.9593 20.8558 28.4127 21.1183C28.8661 21.3808 28.7633 24.243 29.1054 24.8421C29.4476 25.4412 31.448 27.1115 31.5865 26.8406C31.7251 26.5696 30.3985 26.6585 29.4203 26.1123C28.4421 25.5661 27.2205 22.2086 27.3947 22.0265C27.5689 21.8444 27.6739 24.5669 27.9174 25.6593C28.1608 26.7517 29.5966 28.5193 29.9451 28.4304C30.2935 28.3415 28.5828 28.1108 28.0559 27.6112C27.529 27.1115 25.537 23.5253 25.854 23.4343C26.1709 23.3433 26.448 25.4328 26.6243 26.4764C26.8006 27.5201 27.7767 29.9271 28.1608 30.0182C28.545 30.1092 27.4262 29.7917 26.553 28.93C25.6797 28.0684 24.3174 24.4843 24.8737 24.7955C25.4299 25.1067 25.0836 28.8835 25.4677 29.9271C25.8519 30.9708 26.6222 31.8811 26.7964 31.608C26.9707 31.335 25.3271 31.1995 24.8737 30.6999C24.4203 30.2002 22.4388 26.2033 23.0328 26.2033C23.6268 26.2033 23.1734 29.0655 23.4862 30.0648C23.799 31.064 24.71 33.1979 25.1655 33.1979C25.621 33.1979 24.3636 33.0624 23.6646 32.2897C22.9656 31.517 21.1814 27.6577 21.7398 27.7022C22.2981 27.7466 21.914 31.064 21.9854 32.0166C22.0567 32.9693 23.7318 35.6494 23.906 35.5139C24.0802 35.3784 22.6844 34.0151 21.7041 33.3334C20.7238 32.6517 19.2251 28.7924 19.5378 28.93C19.8506 29.0676 20.5517 33.3334 20.7973 34.2882C21.0429 35.2429 22.4031 37.6479 22.6865 37.4213C22.9698 37.1948 21.8825 36.9217 21.3221 36.3311C20.7616 35.7404 17.2666 30.0648 17.8607 30.2913C18.4547 30.5178 18.3498 32.3342 18.5954 33.1535C18.8409 33.9727 23.2133 34.2416 24.9556 31.8346C26.6978 29.4275 26.7713 21.2093 34.1096 22.126Z" fill="#1F145A"/>
</g>
<defs>
<clipPath id="clip0_1696_8755">
<rect width="25" height="30" fill="white" transform="translate(12.1016 9)"/>
</clipPath>
</defs>
</svg>
