<svg width="49" height="48" viewBox="0 0 49 48" fill="none" xmlns="http://www.w3.org/2000/svg">
<rect x="0.898438" y="0.5" width="47" height="47" rx="15.5" stroke="#1F145A"/>
<g clip-path="url(#clip0_1696_8823)">
<path d="M24.0649 16.3622L24.0252 16.8607C25.5422 16.9818 27.2658 15.9119 28.5605 12.7714C28.7502 12.8303 28.9858 12.9051 29.2358 12.9884C29.8121 13.1806 30.4064 13.3996 30.7176 13.5659C30.726 13.5792 30.7364 13.5963 30.7488 13.6176C30.8021 13.7094 30.873 13.847 30.9606 14.0316C31.1349 14.3986 31.3605 14.9197 31.6229 15.5615C32.147 16.8433 32.8092 18.5848 33.4881 20.4914C34.8376 24.2811 36.2372 28.6791 36.7567 31.4044C36.7556 31.4084 36.7544 31.4129 36.7531 31.4177C36.7363 31.4775 36.711 31.5531 36.6799 31.6452L36.6766 31.6551C36.6487 31.7378 36.6159 31.8349 36.5918 31.9201C36.5792 31.9646 36.5658 32.0166 36.5567 32.0689C36.5501 32.1064 36.5338 32.2039 36.554 32.3127L36.5542 32.3138C36.6742 32.9519 36.688 33.1678 36.6877 33.2314C36.6876 33.2317 36.6875 33.2321 36.6874 33.2325C36.6314 33.269 36.5654 33.3112 36.491 33.3577C36.2329 33.5193 35.8765 33.7303 35.4812 33.9306C35.0837 34.1321 34.6593 34.3163 34.263 34.4309C33.9586 34.5189 33.7027 34.5563 33.5022 34.5482L33.2284 34.1145L33.149 33.9889L33.0139 33.9269L31.9941 33.4594L31.9195 32.6879L31.8227 31.6871L31.0842 32.3672L31.0839 32.3675L31.0836 32.3678L31.0835 32.3678L31.0831 32.3682L31.0767 32.3739C31.0736 32.3766 31.0695 32.3802 31.0644 32.3846C31.0582 32.3899 31.0506 32.3964 31.0416 32.404C31.0086 32.4317 30.9566 32.4741 30.8858 32.5279C30.7441 32.6356 30.5271 32.7891 30.236 32.9628C29.6538 33.3104 28.7761 33.7387 27.6113 34.0458C25.2904 34.6578 21.7923 34.7988 17.169 32.7993L16.4959 32.5082L16.4708 33.2412L16.4213 34.6909C16.3093 34.7669 16.193 34.8368 16.0731 34.9C16.0342 34.9193 16.0066 34.939 15.9925 34.9495C15.9672 34.9683 15.9477 34.9862 15.9354 34.9981C15.9109 35.0219 15.8908 35.0452 15.8777 35.0609C15.8505 35.0936 15.8227 35.1311 15.7988 35.1643C15.7636 35.2131 15.7216 35.2739 15.6815 35.332C15.6669 35.3532 15.6525 35.374 15.6388 35.3937C15.6133 35.4304 15.5895 35.4643 15.5678 35.4947C14.9491 35.491 14.5239 35.4885 14.0754 35.3834C13.638 35.2808 13.1572 35.0731 12.478 34.6148C12.4807 34.5695 12.4837 34.5201 12.4871 34.468C12.5031 34.2247 12.5268 33.9349 12.5578 33.7163L12.5581 33.714C12.58 33.5546 12.5289 33.4244 12.504 33.3676C12.4736 33.2982 12.435 33.2358 12.4027 33.1877C12.3424 33.0979 12.2649 33.001 12.2032 32.924L12.1917 32.9096C12.132 32.8351 12.0859 32.7766 12.0522 32.729C12.4101 30.14 13.4829 25.9096 14.6189 22.0409C15.1946 20.0801 15.7835 18.2221 16.2985 16.7317C16.7861 15.3203 17.1948 14.2762 17.4564 13.7755C17.4984 13.7464 17.554 13.7084 17.6213 13.6636C17.7855 13.5542 18.0176 13.4056 18.2878 13.2493C18.6888 13.0175 19.1498 12.783 19.5872 12.6276C19.5991 12.6745 19.6121 12.7237 19.6262 12.7751C19.7399 13.1883 19.9318 13.7463 20.2458 14.3175C20.8755 15.4634 22.0251 16.7039 24.0259 16.8607L24.0649 16.3622ZM24.0649 16.3622C21.2775 16.1438 20.3419 13.5831 20.0682 12.4898L31.0358 13.1712C30.3526 12.768 28.2645 12.1594 28.2645 12.1594C26.983 15.5578 25.3155 16.4621 24.0649 16.3622ZM30.6893 13.5254C30.6893 13.5252 30.6912 13.5274 30.6951 13.5326C30.6912 13.5282 30.6893 13.5256 30.6893 13.5254ZM36.7649 31.3704C36.7658 31.3636 36.7664 31.3623 36.7654 31.3681C36.7653 31.3687 36.7651 31.3694 36.7649 31.3704Z" stroke="#1F145A"/>
<path d="M24.0008 17.1895L24.2826 34.3619L23.7422 21.0007L24.0008 17.1895Z" fill="#1F145A"/>
<path d="M31.1876 20.4082L31.4945 32.3007L31.0352 22.716L31.1876 20.4082Z" fill="#1F145A"/>
<path d="M16.5138 21.2969L16.9152 32.8111L16.3633 23.6047L16.5138 21.2969Z" fill="#1F145A"/>
<path d="M23.9314 16.7633C23.3389 17.082 22.7387 17.3873 22.1598 17.6984C21.8645 17.8539 21.5692 18.0075 21.2836 18.1726C21.1388 18.2532 20.996 18.3358 20.8609 18.4203C20.7953 18.4664 20.72 18.5067 20.6679 18.5528L20.5811 18.6219C20.5665 18.6399 20.5503 18.6566 20.5328 18.6718L20.2646 18.8984L20.1797 18.618C19.9069 17.722 19.6496 16.8171 19.4077 15.9032C19.2919 15.4481 19.1645 14.995 19.0564 14.5361C18.9484 14.0772 18.8345 13.6222 18.7303 13.1614L18.7148 13.0961L18.7592 13.0616C19.1085 12.7736 19.4579 12.4856 19.8188 12.2148C19.508 12.5547 19.1973 12.8811 18.8789 13.2075L18.9059 13.1076C19.0603 13.5531 19.2108 13.9985 19.3536 14.4516C19.4965 14.9048 19.6335 15.3502 19.7744 15.7956C20.0433 16.698 20.3006 17.6036 20.5463 18.5124L20.1951 18.4587C20.2356 18.4126 20.2781 18.3684 20.3205 18.3281L20.4344 18.2475C20.5116 18.1899 20.5849 18.1534 20.6602 18.1073C20.8107 18.0228 20.9613 17.9403 21.1137 17.8692C21.4206 17.7233 21.7255 17.5832 22.0382 17.4564C22.6596 17.1992 23.2907 16.9649 23.9314 16.7633Z" fill="#1F145A"/>
<path d="M24.1797 16.7645C24.8185 16.9776 25.4438 17.2214 26.0594 17.4883C26.3682 17.6208 26.6731 17.7648 26.9761 17.9165C27.1286 17.9894 27.2772 18.0739 27.4258 18.1603C27.5011 18.2083 27.5744 18.2467 27.6497 18.3043L27.7616 18.3869C27.8041 18.4291 27.8465 18.4733 27.8851 18.5194L27.532 18.5674C27.7886 17.663 28.0627 16.7626 28.3445 15.864C28.4931 15.4166 28.632 14.9674 28.7864 14.52C28.9408 14.0726 29.1048 13.633 29.2554 13.1894L29.2824 13.2912C28.9775 12.959 28.6706 12.6269 28.3773 12.2832C28.7343 12.5616 29.0778 12.8592 29.4233 13.1453L29.4657 13.1818L29.4503 13.249C29.3384 13.7059 29.2245 14.1629 29.1029 14.6179C28.9813 15.073 28.852 15.5242 28.7285 15.9792C28.466 16.8835 28.1959 17.784 27.9083 18.6806L27.8176 18.959L27.5609 18.7286C27.5434 18.7128 27.5272 18.6954 27.5127 18.6768L27.4277 18.6077C27.3718 18.5597 27.2984 18.5174 27.2348 18.4714C27.0997 18.385 26.9588 18.3005 26.816 18.216C26.5323 18.047 26.237 17.8896 25.9475 17.7283C25.3569 17.4077 24.7664 17.0928 24.1797 16.7645Z" fill="#1F145A"/>
<path d="M12.418 33.7773C12.9969 34.0058 13.5566 34.2708 14.1163 34.5261C14.3942 34.6586 14.674 34.7853 14.9539 34.9101C15.2337 35.0349 15.5155 35.1617 15.8108 35.2596C15.498 35.2359 15.1898 35.1714 14.8941 35.0676C14.5987 34.9685 14.3094 34.8525 14.0275 34.7201C13.4607 34.4601 12.9215 34.1443 12.418 33.7773Z" fill="#1F145A"/>
<path d="M36.5331 32.668C36.0231 33.0236 35.4796 33.329 34.9101 33.58C34.6252 33.7071 34.3333 33.818 34.0358 33.9121C33.7395 34.0164 33.4306 34.0809 33.1172 34.1041C33.4144 34.01 33.6962 33.8852 33.9799 33.7681C34.2636 33.651 34.5434 33.5243 34.8232 33.3976C35.3887 33.1422 35.9484 32.8849 36.5331 32.668Z" fill="#1F145A"/>
<path d="M18.1719 26.8516C18.4585 27.3155 18.7163 27.7964 18.9438 28.2916C19.1812 28.7831 19.3897 29.2861 19.5865 29.793C19.7834 30.2999 19.9551 30.8202 20.0979 31.3482C20.254 31.8747 20.3498 32.417 20.3836 32.9648C20.1906 32.4503 19.986 31.953 19.7853 31.45C19.5846 30.9469 19.3993 30.4458 19.1947 29.9408C18.9902 29.4359 18.8087 28.929 18.6428 28.4048C18.4768 27.8807 18.307 27.3834 18.1719 26.8516Z" fill="#1F145A"/>
<path d="M30.1772 26.5469C30.0344 27.0768 29.8607 27.5914 29.6754 28.1021C29.4902 28.6128 29.2894 29.1178 29.0965 29.6208C28.9035 30.1238 28.695 30.625 28.4827 31.1203C28.2704 31.6157 28.0601 32.113 27.8594 32.6237C27.9026 32.0755 28.0075 31.5339 28.172 31.009C28.3245 30.4829 28.5078 29.9683 28.7085 29.473C28.9093 28.9776 29.1312 28.4688 29.3744 27.9811C29.6137 27.4879 29.8818 27.009 30.1772 26.5469Z" fill="#1F145A"/>
</g>
<defs>
<clipPath id="clip0_1696_8823">
<rect width="25.7143" height="24" fill="white" transform="translate(11.543 12)"/>
</clipPath>
</defs>
</svg>
