<svg width="48" height="48" viewBox="0 0 48 48" fill="none" xmlns="http://www.w3.org/2000/svg">
<rect x="0.5" y="0.5" width="47" height="47" rx="15.5" stroke="#1F145A"/>
<g clip-path="url(#clip0_1696_8844)">
<path d="M28.4287 18.1533L27.9498 18.2969L27.9307 18.2332L27.9289 18.1667L28.4287 18.1533ZM28.4287 18.1533C27.9498 18.2969 27.9498 18.2969 27.9499 18.2971L27.95 18.2977L27.9507 18.3L27.9536 18.3094L27.9647 18.3467L28.0083 18.4922L28.1738 19.0455C28.3163 19.5226 28.52 20.2051 28.7645 21.0268C29.2533 22.6703 29.9051 24.8702 30.5568 27.0963C31.2086 29.3228 31.8599 31.5739 32.348 33.3204C32.5922 34.194 32.7948 34.9387 32.9361 35.4899C33.0068 35.766 33.0612 35.9898 33.0976 36.1553C33.1167 36.242 33.1281 36.3015 33.1349 36.3394C33.0801 36.3452 32.9953 36.3469 32.8722 36.3362C32.7179 36.3227 32.5575 36.296 32.3864 36.2674C32.3425 36.26 32.2978 36.2526 32.2524 36.2452C32.1477 36.2282 32.0367 36.2114 31.9333 36.202C31.8363 36.1932 31.7111 36.187 31.5892 36.2078C31.4202 36.2366 31.2713 36.3196 31.1608 36.4496C31.06 36.5681 31.0126 36.7003 30.9874 36.8013C30.9448 36.9716 30.9392 37.1759 30.935 37.3254C30.9346 37.3394 30.9342 37.353 30.9338 37.3661C30.9231 37.7212 30.8966 37.9513 30.79 38.1049C30.7771 38.1084 30.7581 38.1126 30.7318 38.1166C30.6297 38.1321 30.4786 38.135 30.278 38.1202C29.8794 38.0908 29.3766 37.9991 28.8656 37.8898C28.5607 37.8246 28.2926 37.7623 28.0424 37.7042C27.8487 37.6593 27.6658 37.6168 27.4848 37.5773C27.3001 37.5371 27.1264 37.5024 26.9937 37.4865C26.9338 37.4793 26.8453 37.471 26.758 37.4803C26.7193 37.4845 26.6271 37.4967 26.5306 37.5518C26.4325 37.6079 26.32 37.7185 26.2814 37.8818C26.2741 37.8911 26.2641 37.9031 26.2509 37.9177C26.1892 37.9856 26.0864 38.0762 25.947 38.1669C25.6666 38.3492 25.2875 38.5001 24.878 38.5001C24.7074 38.5001 24.4843 38.4455 24.2074 38.3333C23.9352 38.2229 23.6475 38.0723 23.3515 37.9104C23.2908 37.8772 23.2292 37.8432 23.1672 37.809C22.9378 37.6823 22.7032 37.5528 22.4909 37.4508C22.2381 37.3293 21.9236 37.198 21.6278 37.198C21.3413 37.198 21.0825 37.3006 20.8756 37.4061C20.7018 37.4947 20.5239 37.6077 20.3674 37.7073C20.3384 37.7257 20.3101 37.7437 20.2827 37.7609C19.882 38.0136 19.6248 38.1372 19.4024 38.1181C19.3096 38.1101 19.2745 38.083 19.2508 38.0605C19.211 38.0225 19.1753 37.966 19.1112 37.8462C19.1075 37.8393 19.1034 37.8313 19.0987 37.8223C19.0507 37.7304 18.9506 37.5389 18.7927 37.4103C18.6872 37.3244 18.5532 37.26 18.3927 37.2433C18.2401 37.2275 18.0973 37.2583 17.9724 37.3056C17.9736 37.3051 17.9731 37.3052 17.9706 37.3057C17.9599 37.3078 17.9144 37.3167 17.8187 37.3174C17.7097 37.3183 17.5685 37.3086 17.4021 37.2863C17.0695 37.2417 16.6675 37.1511 16.2749 37.0216C15.8794 36.8912 15.5161 36.7288 15.2484 36.5504C14.9805 36.3719 14.8847 36.2289 14.8609 36.151C14.8609 36.145 14.8611 36.1359 14.8617 36.1232C14.8638 36.0824 14.8697 36.0235 14.8812 35.944C14.9043 35.7852 14.9455 35.5712 15.0048 35.305C15.123 34.7738 15.3059 34.0647 15.5347 33.2317C15.9919 31.5674 16.6254 29.4335 17.2724 27.2924C17.599 26.2116 17.931 25.1226 18.2447 24.0935C18.5494 23.094 18.8369 22.1509 19.0854 21.3269C19.339 20.4864 19.5552 19.7592 19.7131 19.2053C19.865 18.6721 19.9767 18.2534 20.0018 18.0647C20.0504 17.6983 19.9935 17.1285 19.9062 16.5229C19.8157 15.8952 19.6804 15.1564 19.54 14.4155C19.5021 14.2156 19.464 14.0163 19.4263 13.8194C19.1793 12.5269 18.9512 11.3336 18.9209 10.7119C18.9 10.2842 19.2012 9.92433 19.8591 9.70493C20.5074 9.48873 21.3053 9.49497 21.8327 9.68319C22.0488 9.76032 22.2244 9.83539 22.4002 9.91058C22.4739 9.94209 22.5476 9.97363 22.6244 10.0053C22.8745 10.1086 23.1404 10.2059 23.4537 10.2497C24.0884 10.3386 24.8131 10.195 25.9698 9.72577C26.9456 9.32992 27.6701 9.51549 28.1819 9.81801C28.7181 10.1349 29.0428 10.597 29.1318 10.7459C29.1309 10.7444 29.1305 10.7436 29.1304 10.7437C29.1302 10.7438 29.1406 10.7648 29.1544 10.8175C29.1696 10.8753 29.1845 10.9541 29.1961 11.0534C29.2193 11.2518 29.2264 11.5097 29.2048 11.8031C29.1613 12.3928 29.0048 13.086 28.6695 13.6982C28.237 14.4878 28.0627 15.6352 27.9869 16.5204C27.948 16.9753 27.9335 17.3848 27.9287 17.6805C27.9263 17.8286 27.9263 17.9487 27.9269 18.0325C27.9273 18.0744 27.9277 18.1072 27.9281 18.1299L27.9287 18.1563L27.9288 18.1635L27.9289 18.1656L27.9289 18.1663L27.9289 18.1665C27.9289 18.1666 27.9289 18.1667 28.4287 18.1533ZM26.2974 37.8593C26.3002 37.8544 26.2991 37.8553 26.2962 37.8613C26.2967 37.8604 26.2971 37.8597 26.2974 37.8593Z" stroke="#1F145A"/>
<path d="M20.4166 18.0371C20.9836 18.3307 21.5911 18.5356 22.2186 18.6447C22.846 18.764 23.4833 18.8209 24.1215 18.8145C24.7608 18.8039 25.3978 18.7335 26.0244 18.6042C26.3365 18.5521 26.6409 18.4518 26.9454 18.3708C27.2498 18.2898 27.5448 18.1586 27.8359 18.0352C27.5182 18.0679 27.2118 18.1277 26.9016 18.1663L26.4373 18.2242C26.2826 18.2473 26.1284 18.2647 25.9749 18.2763C25.8214 18.2879 25.6673 18.3033 25.5125 18.3226L25.0482 18.3515L24.818 18.3689H24.5858C24.4317 18.3689 24.2775 18.3804 24.1234 18.3804C23.5061 18.3894 22.8887 18.3656 22.2738 18.3091C21.6496 18.2595 21.0292 18.1686 20.4166 18.0371Z" fill="#1F145A"/>
<path d="M18.093 37.0943L18.2833 32.6885C18.3358 31.2248 18.4763 29.7656 18.7039 28.3193C18.8206 27.5939 18.9474 26.8699 19.0844 26.1472L19.4707 23.977L20.2852 19.6406C19.9274 21.0681 19.602 22.5033 19.2785 23.9385C18.955 25.3736 18.662 26.8165 18.3994 28.2672C18.3328 28.6298 18.2719 28.9925 18.2091 29.359C18.1463 29.7255 18.0949 30.092 18.0569 30.4605C18.0188 30.8289 17.9865 31.1973 17.9617 31.5658C17.937 31.9342 17.9237 32.3046 17.9104 32.673C17.8675 34.1493 17.9285 35.6268 18.093 37.0943Z" fill="#1F145A"/>
<path d="M21.6576 37.2629C21.8593 35.9376 22.0192 34.6105 22.1714 33.2833L22.6091 29.298C22.6776 28.6248 22.6909 27.9477 22.7023 27.2822C22.7137 26.6167 22.7023 25.9434 22.6909 25.2741C22.6585 23.9353 22.6148 22.5966 22.5329 21.2617C22.5329 22.6005 22.5482 23.9373 22.5329 25.2741C22.5177 26.6109 22.4911 27.9515 22.3427 29.2671C22.1219 30.5788 21.9221 31.9118 21.8118 33.2467C21.6843 34.5813 21.6328 35.9223 21.6576 37.2629Z" fill="#1F145A"/>
<path d="M26.8415 37.6207C26.9284 37.3142 26.9832 36.9993 27.0051 36.6813L27.0356 36.199L27.0508 35.7206C27.0508 35.4023 27.0508 35.084 27.0394 34.7561C27.0279 34.4282 27.0108 34.1215 26.9899 33.8051C26.9081 32.5339 26.7368 31.2762 26.5503 30.0204C26.3638 28.7646 26.1222 27.5127 25.852 26.28C25.715 25.6608 25.5818 25.0416 25.4276 24.4262C25.2735 23.8109 25.1194 23.1975 24.9462 22.5879C25.1365 23.8417 25.3496 25.0956 25.5608 26.3379C25.772 27.5802 25.9814 28.8321 26.1755 30.0802C26.3695 31.3282 26.556 32.5879 26.6949 33.8321C26.7634 34.459 26.8281 35.086 26.8643 35.7167C26.9263 36.3503 26.9187 36.9889 26.8415 37.6207Z" fill="#1F145A"/>
<path d="M31.3281 36.3447L30.9342 35.3667L30.5537 34.3848C30.3063 33.7309 30.076 33.0711 29.8838 32.4056C29.7925 32.07 29.7145 31.744 29.6536 31.3967L29.4633 30.3609L29.0827 28.2872C28.5785 25.521 28.0476 22.7606 27.4443 20.0117C27.8059 22.803 28.2455 25.5808 28.7212 28.3528L29.0865 30.4303L29.2768 31.4681C29.3073 31.6398 29.3472 31.8173 29.3872 31.9928C29.4271 32.1684 29.4823 32.3381 29.5356 32.5079C29.9925 33.8496 30.5936 35.1363 31.3281 36.3447Z" fill="#1F145A"/>
<path d="M18.4489 10.373C18.4489 10.373 17.6611 12.2886 17.429 12.6338C17.1968 12.9791 17.429 12.711 17.8095 13.554C18.1901 14.397 18.0931 14.8754 18.3195 15.0297C18.5459 15.184 19.3984 15.6624 19.3984 15.6624L19.2081 13.7835L18.4489 10.373Z" fill="#1F145A"/>
<path d="M29.4718 10.373C29.4718 10.373 30.2653 12.2886 30.4918 12.6338C30.7182 12.9791 30.4918 12.711 30.1112 13.554C29.7306 14.397 29.8276 14.8754 29.5993 15.0297C29.371 15.184 28.5223 15.6624 28.5223 15.6624L28.7126 13.7835L29.4718 10.373Z" fill="#1F145A"/>
<path d="M28.661 15.3211C28.8445 15.0564 28.9995 14.7725 29.1234 14.4743C29.2505 14.1777 29.3542 13.8713 29.4336 13.558C29.4735 13.4018 29.504 13.2417 29.5344 13.0835C29.5649 12.9253 29.5877 12.7633 29.5953 12.6012C29.6231 12.2801 29.6186 11.9569 29.582 11.6367C29.5325 11.955 29.4925 12.2694 29.4317 12.5819C29.3708 12.8944 29.3099 13.2011 29.2299 13.5059C29.15 13.8107 29.0663 14.1155 28.9712 14.4184C28.876 14.7212 28.7733 15.0202 28.661 15.3211Z" fill="white"/>
<path d="M19.2969 15.3211C19.1827 15.0202 19.0838 14.7173 18.9867 14.4164C18.8897 14.1155 18.7964 13.8107 18.7279 13.504C18.6594 13.1973 18.5814 12.8906 18.5262 12.58C18.471 12.2694 18.4235 11.9531 18.3759 11.6348C18.3392 11.955 18.3347 12.2781 18.3626 12.5993C18.3626 12.7613 18.4025 12.9214 18.4235 13.0815C18.4444 13.2416 18.4843 13.3998 18.5243 13.5561C18.6036 13.8693 18.7073 14.1757 18.8345 14.4723C18.9582 14.7712 19.1132 15.0558 19.2969 15.3211Z" fill="white"/>
</g>
<defs>
<clipPath id="clip0_1696_8844">
<rect width="19.2857" height="30" fill="white" transform="matrix(-1 0 0 1 33.6445 9)"/>
</clipPath>
</defs>
</svg>
