<svg width="49" height="48" viewBox="0 0 49 48" fill="none" xmlns="http://www.w3.org/2000/svg">
<rect x="1.10156" y="0.5" width="47" height="47" rx="15.5" stroke="#1F145A"/>
<g clip-path="url(#clip0_1696_8864)">
<path d="M31.2399 32.1951L31.8598 32.3355C32.1107 32.3923 32.6017 32.3759 33.2701 32.2834C33.9146 32.1942 34.6541 32.0453 35.3591 31.8845C36.0625 31.7241 36.7237 31.5536 37.2096 31.4231C37.3865 31.3755 37.5399 31.3334 37.6634 31.299C37.6667 31.2793 37.67 31.2597 37.6734 31.2404C37.6843 31.1791 37.6957 31.1184 37.7075 31.0559C37.731 30.931 37.7558 30.7993 37.7795 30.6429C37.8388 30.2518 37.8779 29.7767 37.8058 29.2434C37.7902 29.2392 37.7735 29.2348 37.7557 29.2301L37.748 29.2281C37.6658 29.2064 37.5522 29.1764 37.4566 29.14C37.4082 29.1216 37.3372 29.0917 37.2686 29.0452C37.2162 29.0097 37.0618 28.8968 37.0197 28.68M31.2399 32.1951L37.5106 28.5848M31.2399 32.1951L31.2494 32.8307L31.3187 37.4309C31.1353 37.4951 30.8742 37.581 30.5425 37.6764C29.8252 37.8828 28.779 38.1331 27.4759 38.3039C24.9413 38.6362 21.4405 38.6673 17.4959 37.4951L17.3666 34.0759L17.3496 33.6269L16.9016 33.596L16.9015 33.596L16.9015 33.596L16.9014 33.596L16.9004 33.596L16.8944 33.5955L16.8681 33.5934C16.8442 33.5915 16.8081 33.5884 16.7607 33.5838C16.666 33.5748 16.5268 33.56 16.3524 33.5376C16.0031 33.4928 15.5147 33.4176 14.9609 33.2964C13.8884 33.0618 12.6163 32.6642 11.6287 32.0132C11.3976 31.3487 11.3075 30.6437 11.364 29.9431C11.3685 29.9418 11.3731 29.9404 11.3777 29.939L11.3863 29.9364C11.4602 29.9142 11.5786 29.8787 11.6809 29.8291C11.7355 29.8027 11.8135 29.7594 11.8857 29.6908C11.9612 29.619 12.0513 29.4988 12.0727 29.3275L12.0729 29.3259C12.3986 26.6582 12.9149 22.6669 13.4901 19.0886C13.7777 17.2988 14.0791 15.6184 14.3777 14.2609C14.6545 13.0026 14.9176 12.0782 15.1448 11.5908L15.1611 11.5825C15.265 11.5301 15.4152 11.4547 15.5995 11.3633C15.9684 11.1804 16.4732 10.9337 17.0178 10.6782C17.8738 10.2766 18.7846 9.87441 19.4254 9.65035C19.4317 9.67993 19.4382 9.71054 19.4451 9.74216C19.5318 10.1431 19.6662 10.7065 19.8579 11.3602C20.2399 12.6622 20.856 14.3467 21.7904 15.8207L21.7909 15.8215C22.1102 16.3231 22.7632 16.8561 23.3323 17.2193C23.624 17.4055 23.9242 17.5668 24.1858 17.6653C24.3144 17.7138 24.4567 17.756 24.5962 17.7698C24.7144 17.7815 24.9532 17.7856 25.1499 17.6135C25.1925 17.5762 25.2945 17.5045 25.4697 17.3814C25.4892 17.3678 25.5095 17.3535 25.5307 17.3385C25.726 17.2012 25.9695 17.0281 26.2123 16.8355C26.4536 16.6441 26.7058 16.4246 26.9155 16.1915C27.1177 15.9665 27.3188 15.6874 27.4007 15.3739C27.6212 14.5353 27.7258 13.9371 27.8437 13.263C27.8642 13.1457 27.8851 13.0261 27.9071 12.9026C28.0389 12.1625 28.2135 11.2549 28.5803 9.79557M31.2399 32.1951L28.5803 9.79557M37.0197 28.68L37.5106 28.5848M37.0197 28.68C37.0198 28.6802 37.0198 28.6804 37.0198 28.6805L37.5106 28.5848M37.0197 28.68C36.9148 28.1422 36.8007 27.5542 36.6796 26.9303C36.1692 24.3008 35.535 21.0336 34.9463 18.1975C34.582 16.4423 34.2364 14.8584 33.9493 13.6958C33.8054 13.1131 33.6784 12.6452 33.5729 12.3172C33.5197 12.1518 33.4758 12.0341 33.442 11.959C33.4414 11.9578 33.4408 11.9565 33.4403 11.9553M37.5106 28.5848C37.4058 28.0478 37.2918 27.4603 37.1708 26.8367C36.0289 20.954 34.2634 11.8585 33.7799 11.572L33.5251 12.0022C33.503 11.9891 33.4746 11.9734 33.4403 11.9553M33.4403 11.9553C33.2535 11.8565 32.8923 11.6858 32.4184 11.4709C31.8703 11.2223 31.2019 10.9281 30.5532 10.6458C29.9049 10.3636 29.2778 10.094 28.8126 9.89491C28.7297 9.85944 28.652 9.82622 28.5803 9.79557M33.4403 11.9553L28.5803 9.79557" stroke="#1F145A"/>
<path d="M24.2607 19.618C24.2637 19.3949 24.0944 19.2117 23.8826 19.2088C23.6709 19.206 23.4967 19.3846 23.4937 19.6077C23.4907 19.8308 23.66 20.014 23.8718 20.0169C24.0835 20.0197 24.2577 19.8411 24.2607 19.618Z" fill="#1F145A"/>
<path d="M24.9599 25.8153C24.9629 25.5921 24.7936 25.4089 24.5819 25.4061C24.3701 25.4033 24.1959 25.5818 24.1929 25.805C24.1899 26.0281 24.3592 26.2113 24.571 26.2141C24.7828 26.217 24.9569 26.0384 24.9599 25.8153Z" fill="#1F145A"/>
<path d="M25.3349 31.7156C25.3379 31.4925 25.1686 31.3093 24.9569 31.3065C24.7451 31.3036 24.5709 31.4822 24.5679 31.7054C24.5649 31.9285 24.7342 32.1117 24.946 32.1145C25.1578 32.1174 25.3319 31.9388 25.3349 31.7156Z" fill="#1F145A"/>
<path d="M22.4766 18.7168L24.507 37.3416L22.4766 23.5144V18.7168Z" fill="#1F145A"/>
<path d="M31.2709 17.4727L31.7759 33.0734L31.1367 19.8226L31.2709 17.4727Z" fill="#1F145A"/>
<path d="M16.3999 18.5L16.9048 34.1008L16.2656 20.8478L16.3999 18.5Z" fill="#1F145A"/>
<path d="M24.7253 17.4405C24.1756 17.1534 23.6174 16.8918 23.0591 16.6217C22.5009 16.3517 21.9512 16.0731 21.3994 15.8051L19.7503 14.9545C19.2048 14.6631 18.6551 14.3824 18.114 14.0847L17.9009 13.9699L18.0415 13.7785C18.4676 13.1979 18.8767 12.6174 19.305 12.0432L19.3732 12.3218L18.2013 11.7135L17.0295 11.099L16.8164 10.982L17.0167 10.848C17.4854 10.5354 17.9478 10.21 18.4208 9.91444C18.8938 9.61884 19.3582 9.2956 19.8376 9C19.4115 9.3594 18.9598 9.70391 18.5188 10.0633C18.0777 10.4227 17.6303 10.7523 17.1871 11.0968L17.1658 10.8459L18.3611 11.4094L19.55 11.9772L19.7631 12.0751L19.631 12.2643C19.224 12.8534 18.8064 13.434 18.3931 14.0167L18.3078 13.7062C18.8575 13.9911 19.3987 14.291 19.942 14.5845C20.4853 14.8779 21.0244 15.1842 21.5613 15.4904C22.0982 15.7966 22.6266 16.1092 23.1614 16.4304L23.9519 16.9216C24.2183 17.0814 24.4764 17.2546 24.7253 17.4405Z" fill="#1F145A"/>
<path d="M22.375 18.4604C22.7052 18.2669 23.0419 18.0861 23.3764 17.9032C23.7109 17.7203 24.0497 17.5375 24.3884 17.3609L25.4048 16.8357C25.7371 16.6677 26.0589 16.4678 26.3763 16.2679C27.0155 15.8596 27.6206 15.4045 28.2236 14.9451C28.5233 14.7154 28.8209 14.4801 29.1163 14.2391L29.5552 13.8754L29.9813 13.5267V13.8159C29.5552 13.3736 29.112 12.9334 28.6838 12.4846L28.492 12.272L28.7392 12.1614L29.9451 11.6191L31.1532 11.0875L31.1297 11.3405C30.644 10.9811 30.156 10.6154 29.6767 10.2389C29.1973 9.86254 28.7136 9.49038 28.2406 9.10547C28.7498 9.42446 29.2654 9.76684 29.7768 10.0986C30.2881 10.4303 30.7931 10.7727 31.3066 11.113L31.5196 11.2512L31.2895 11.3639L30.0921 11.9487L28.9032 12.525L28.9629 12.2103C29.4082 12.6356 29.8428 13.0843 30.2818 13.5203L30.433 13.6713L30.2881 13.8095C30.2306 13.8648 30.2008 13.8882 30.1624 13.9222L30.0516 14.0158L29.8386 14.2029C29.6916 14.3263 29.5424 14.4454 29.3933 14.5666C29.095 14.8076 28.7924 15.0437 28.4856 15.2747C27.8741 15.7383 27.2435 16.1786 26.5851 16.5826C26.253 16.7883 25.9086 16.9737 25.5539 17.1377C25.2023 17.2971 24.855 17.4481 24.5035 17.597C24.1519 17.7459 23.8004 17.8947 23.4382 18.0351C23.076 18.1754 22.7351 18.3243 22.375 18.4604Z" fill="#1F145A"/>
<path d="M11.6748 29.4785C11.6748 29.4785 15.1286 30.8842 15.6847 30.8736C15.6847 30.8736 11.4788 29.8103 11.385 29.7635C11.2913 29.7167 11.5214 29.4955 11.6748 29.4785Z" fill="#1F145A"/>
<path d="M37.1849 28.9023C37.1849 28.9023 33.6971 30.2145 33.1367 30.1783C33.1367 30.1783 37.3681 29.2383 37.4662 29.1831C37.5642 29.1278 37.3383 28.9236 37.1849 28.9023Z" fill="#1F145A"/>
<path d="M17.8242 32.9056L20.1636 28.7715L20.2787 29.1904L18.016 32.9418L17.8242 32.9056Z" fill="#1F145A"/>
<path d="M30.3256 33.0169L27.9861 28.8828L27.8711 29.3039L30.1338 33.0573L30.3256 33.0169Z" fill="#1F145A"/>
</g>
<defs>
<clipPath id="clip0_1696_8864">
<rect width="27.5" height="30" fill="white" transform="translate(10.8516 9)"/>
</clipPath>
</defs>
</svg>
