<svg width="24" height="24" viewBox="0 0 24 24" fill="none" xmlns="http://www.w3.org/2000/svg">
  <path d="
M12.3937 4.4536c-1.6688-0.0028-3.7594 0.5245-5.8219 1.598C4.5127 7.125 2.8805 8.5312 1.9223 9.9047c-0.9586 1.3687-1.2178 2.6437-0.7462 3.5531c0.472 0.9047 1.6655 1.425 3.3384 1.425c1.673 0.0047 3.7636-0.525 5.8214-1.5938c2.0625-1.0734 3.6937-2.4844 4.65-3.8531c0.9609-1.3687 1.2141-2.6437 0.7453-3.5531c-0.4734-0.9047-1.6641-1.4292-3.3375-1.4292zm4.3078 3.2948c-0.1641 0.7172-0.5203 1.4531-1.0219 2.1703c-1.0594 1.5141-2.7891 2.9906-4.9547 4.1156c-2.1656 1.1297-4.3641 1.6969-6.2109 1.6969c-0.8719 0.0-1.68-0.1312-2.3611-0.4078l0.4964 0.9562c0.4725 0.9094 1.6627 1.4297 3.3366 1.4297c1.6734 0.0 3.7641-0.525 5.8219-1.5984c2.0625-1.0688 3.6937-2.4797 4.65-3.8531c0.9562-1.3687 1.2188-2.6437 0.7453-3.5484zm1.35 0.7875c0.525 1.2516 0.1031 2.775-0.9 4.2047c-0.8859 1.2703-2.2406 2.5031-3.9187 3.5344c0.5203 0.0562 1.0641 0.0844 1.6172 0.0844c2.3203 0.0 4.4203-0.4969 5.9016-1.2703c1.4859-0.7734 2.3016-1.7859 2.3016-2.8078s-0.8156-2.0344-2.3016-2.8078c-0.7547-0.3938-1.6734-0.7172-2.7-0.9375zm5.0016 5.85c-0.4781 0.5578-1.1344 1.05-1.9078 1.4531c-1.6406 0.8531-3.8531 1.3641-6.2953 1.3641c-0.9937 0.0-1.95-0.0844-2.8453-0.2438c-1.0875 0.5484-2.1797 0.9562-3.2297 1.2234c0.0562 0.0328 0.1125 0.0609 0.1734 0.0938c1.4813 0.7734 3.5813 1.2703 5.9016 1.2703s4.4203-0.4969 5.9016-1.2703c1.4859-0.7734 2.3016-1.7859 2.3016-2.8078z
" fill="#1877F2"/>
</svg>
