<svg width="24" height="25" viewBox="0 0 24 25" fill="none" xmlns="http://www.w3.org/2000/svg">
<g id="icons/navbar/ic-payment">
<path id="Vector" d="M22.1538 0H1.84615C1.35652 0 0.886947 0.194505 0.540726 0.540726C0.194505 0.886947 0 1.35652 0 1.84615V12.9231C0 13.4127 0.194505 13.8823 0.540726 14.2285C0.886947 14.5747 1.35652 14.7692 1.84615 14.7692H22.1538C22.6435 14.7692 23.1131 14.5747 23.4593 14.2285C23.8055 13.8823 24 13.4127 24 12.9231V1.84615C24 1.35652 23.8055 0.886947 23.4593 0.540726C23.1131 0.194505 22.6435 0 22.1538 0Z" fill="#B2D1F8"/>
<path id="Vector_2" d="M12.0001 20.3077V24M16.6155 18.4615V22.1538M7.38469 18.4615V22.1538M13.9644 5.33353C13.8592 5.03283 13.663 4.77238 13.4029 4.58841C13.1428 4.40444 12.8319 4.3061 12.5133 4.30707H11.3225C10.9848 4.30827 10.6594 4.43384 10.4084 4.6598C10.1574 4.88575 9.99849 5.19625 9.96194 5.53198C9.9254 5.86771 10.0138 6.20513 10.2103 6.47979C10.4068 6.75445 10.6976 6.94709 11.0272 7.02092L12.8419 7.41969C13.2115 7.50209 13.5377 7.71775 13.7582 8.02547C13.9788 8.33319 14.0783 8.71139 14.0376 9.08781C13.9969 9.46423 13.819 9.81247 13.5378 10.066C13.2567 10.3195 12.8919 10.4606 12.5133 10.4621H11.4868C11.1683 10.4631 10.8573 10.3648 10.5973 10.1808C10.3372 9.99684 10.1409 9.73639 10.0358 9.43569M12.0001 4.30707V2.76923M12.0001 12V10.4621M4.15392 7.84615C4.03151 7.84615 3.91412 7.79752 3.82756 7.71097C3.74101 7.62441 3.69238 7.50702 3.69238 7.38461C3.69238 7.2622 3.74101 7.14481 3.82756 7.05825C3.91412 6.9717 4.03151 6.92307 4.15392 6.92307C4.27633 6.92307 4.39372 6.9717 4.48028 7.05825C4.56683 7.14481 4.61546 7.2622 4.61546 7.38461C4.61546 7.50702 4.56683 7.62441 4.48028 7.71097C4.39372 7.79752 4.27633 7.84615 4.15392 7.84615ZM19.8462 7.84615C19.7238 7.84615 19.6064 7.79752 19.5199 7.71097C19.4333 7.62441 19.3847 7.50702 19.3847 7.38461C19.3847 7.2622 19.4333 7.14481 19.5199 7.05825C19.6064 6.9717 19.7238 6.92307 19.8462 6.92307C19.9686 6.92307 20.086 6.9717 20.1726 7.05825C20.2591 7.14481 20.3078 7.2622 20.3078 7.38461C20.3078 7.50702 20.2591 7.62441 20.1726 7.71097C20.086 7.79752 19.9686 7.84615 19.8462 7.84615Z" stroke="#1D7BF5" stroke-width="1.5" stroke-linecap="round" stroke-linejoin="round"/>
</g>
</svg>
