<svg width="24" height="24" viewBox="0 0 24 24" fill="none" xmlns="http://www.w3.org/2000/svg">
<path opacity="0.5" d="M13.75 20V14.75H4C3.80109 14.75 3.61032 14.671 3.46967 14.5303C3.32902 14.3897 3.25 14.1989 3.25 14C3.25 13.8011 3.32902 13.6103 3.46967 13.4697C3.61032 13.329 3.80109 13.25 4 13.25H20C20.1456 13.2499 20.2881 13.2923 20.4101 13.3718C20.532 13.4514 20.6282 13.5647 20.6868 13.698C20.7455 13.8313 20.764 13.9787 20.7403 14.1224C20.7165 14.2661 20.6514 14.3997 20.553 14.507L15.053 20.507C14.9509 20.6185 14.8175 20.6965 14.6703 20.7308C14.5231 20.7651 14.3689 20.7541 14.228 20.6993C14.0872 20.6445 13.9661 20.5484 13.8808 20.4236C13.7955 20.2988 13.7499 20.1512 13.75 20Z" fill="#1D7BF5"/>
<path d="M10.2498 3.99999C10.2499 3.84883 10.2043 3.70117 10.119 3.57638C10.0337 3.4516 9.91267 3.35549 9.7718 3.30068C9.63093 3.24587 9.47678 3.2349 9.32957 3.26922C9.18236 3.30353 9.04895 3.38153 8.94684 3.49299L3.44684 9.49299C3.3484 9.60029 3.28333 9.73393 3.25957 9.87759C3.2358 10.0212 3.25437 10.1687 3.31301 10.302C3.37165 10.4353 3.46781 10.5486 3.58978 10.6282C3.71174 10.7077 3.85422 10.7501 3.99984 10.75H19.9998C20.1987 10.75 20.3895 10.671 20.5302 10.5303C20.6708 10.3897 20.7498 10.1989 20.7498 9.99999C20.7498 9.80107 20.6708 9.61031 20.5302 9.46966C20.3895 9.32901 20.1987 9.24999 19.9998 9.24999H10.2498V3.99999Z" fill="#1D7BF5"/>
</svg>
